<svg height="661pt" viewBox="-21 -20 661 661.33331" width="661pt" xmlns="http://www.w3.org/2000/svg"><path d="m69.316406 440.601562h20v10h-20zm0 0"/><path d="m89.316406 420.230469h-20v-20.363281h20zm0-40.707031h-20v-20.363282h20zm0-40.726563h-20v-20.355469h20zm0-40.707031h-20v-20.359375h20zm0-40.730469h-20v-20.359375h20zm0-40.710937h-20v-20.359376h20zm0 0"/><path d="m69.316406 165.941406h20v10h-20zm0 0"/><path d="m434.238281 543.390625h10v20h-10zm0 0"/><path d="m415.738281 563.390625h-18.511719v-20h18.511719zm-36.996093 0h-18.511719v-20h18.511719zm-37.003907 0h-18.511719v-20h18.511719zm-37.011719 0h-18.511718v-20h18.511718zm-36.996093 0h-18.5v-20h18.5zm-37.003907 0h-18.5v-20h18.5zm0 0"/><path d="m183.714844 543.390625h10v20h-10zm0 0"/><path d="m529.390625 173.921875h20v10h-20zm0 0"/><path d="m549.390625 423.109375h-20v-19.929687h20zm0-39.875h-20v-19.933594h20zm0-39.867187h-20v-19.925782h20zm0-39.855469h-20v-19.933594h20zm0-39.875h-20v-19.925781h20zm0-39.855469h-20v-19.933594h20zm0 0"/><path d="m529.390625 443.042969h20v10h-20zm0 0"/><path d="m182.492188 61.757812h10v20h-10zm0 0"/><path d="m406.730469 81.757812h-21.433594v-20h21.433594zm-42.851563 0h-21.433594v-20h21.433594zm-42.847656 0h-21.421875v-20h21.429687zm-42.851562 0h-21.421876v-20h21.421876zm-42.84375 0h-21.429688v-20h21.421875zm0 0"/><path d="m428.148438 61.757812h10v20h-10zm0 0"/><path d="m119.125 146.230469h-72.683594c-3.574218 0-6.886718-1.910157-8.671875-5.011719l-36.34375-63.109375c-1.777343-3.089844-1.777343-6.890625 0-9.980469l36.351563-63.121094c1.777344-3.097656 5.089844-5.007812 8.664062-5.007812h72.683594c3.574219 0 6.882812 1.910156 8.671875 5.007812l36.355469 63.121094c1.777344 3.089844 1.777344 6.890625 0 9.980469l-36.355469 63.121094c-1.789063 3.089843-5.085937 5-8.671875 5zm-66.898438-20h61.132813l30.589844-53.121094-30.597657-53.109375h-61.125l-30.601562 53.121094zm0 0"/><path d="m64.757812 67.53125c-.011718 0-.011718 0 0 0-1.589843 0-3.058593.628906-4.039062 1.707031-.9375 1.03125-1.429688 2.320313-1.429688 3.710938 0 1.402343.5 2.691406 1.4375 3.730469 1.011719 1.117187 2.402344 1.710937 4.019532 1.710937 1.621094 0 3.011718-.59375 4.042968-1.71875.9375-1.03125 1.429688-2.320313 1.429688-3.722656 0-1.390625-.5-2.679688-1.4375-3.730469-.984375-1.078125-2.453125-1.6875-4.023438-1.6875zm-1.71875 7.046875"/><path d="m64.746094 79.4375c-1.910156 0-3.570313-.71875-4.789063-2.058594-1.117187-1.242187-1.710937-2.777344-1.710937-4.429687 0-1.660157.59375-3.179688 1.699218-4.410157 1.191407-1.296874 2.941407-2.050781 4.8125-2.050781 1.867188 0 3.613282.742188 4.789063 2.042969 1.121094 1.25 1.722656 2.777344 1.722656 4.429688 0 1.65625-.589843 3.191406-1.699219 4.417968-1.238281 1.339844-2.898437 2.058594-4.824218 2.058594zm.011718-10.867188c-1.289062 0-2.476562.5-3.269531 1.371094-.761719.832032-1.160156 1.878906-1.160156 3.007813 0 1.132812.410156 2.183593 1.171875 3.03125 1.628906 1.816406 4.878906 1.796875 6.519531-.007813.761719-.839844 1.152344-1.878906 1.152344-3.023437 0-1.128907-.410156-2.175781-1.171875-3.027344-.773438-.863281-1.960938-1.351563-3.242188-1.351563zm0 0"/><path d="m82.65625 67.53125c-1.585938 0-3.046875.628906-4.039062 1.707031-.925782 1.03125-1.417969 2.308594-1.417969 3.710938 0 1.402343.5 2.691406 1.4375 3.730469 1.023437 1.117187 2.414062 1.710937 4.019531 1.710937 1.613281 0 3.011719-.59375 4.042969-1.730469.929687-1.03125 1.429687-2.320312 1.429687-3.722656 0-1.390625-.5-2.679688-1.4375-3.726562-.992187-1.070313-2.453125-1.679688-4.035156-1.679688zm0 0"/><path d="m82.65625 79.4375c-1.910156 0-3.570312-.707031-4.789062-2.058594-1.117188-1.226562-1.710938-2.761718-1.710938-4.429687 0-1.652344.59375-3.167969 1.699219-4.410157 1.191406-1.296874 2.941406-2.050781 4.800781-2.050781h.011719c1.867187 0 3.613281.742188 4.789062 2.042969 1.121094 1.25 1.714844 2.777344 1.714844 4.429688 0 1.65625-.59375 3.175781-1.707031 4.417968-1.222656 1.339844-2.894532 2.058594-4.808594 2.058594zm0-10.867188c-1.277344 0-2.464844.5-3.257812 1.371094-.761719.832032-1.160157 1.878906-1.160157 3.007813 0 1.144531.398438 2.191406 1.171875 3.03125 1.640625 1.808593 4.867188 1.789062 6.519532-.007813.75-.839844 1.152343-1.890625 1.152343-3.023437 0-1.128907-.410156-2.175781-1.171875-3.027344-.78125-.863281-1.96875-1.351563-3.253906-1.351563zm0 0"/><path d="m104.589844 69.21875c-.980469-1.070312-2.449219-1.6875-4.023438-1.6875-1.578125 0-3.046875.628906-4.039062 1.707031-.941406 1.03125-1.429688 2.320313-1.429688 3.710938 0 1.402343.5 2.691406 1.441406 3.730469 1.019532 1.117187 2.410157 1.71875 4.019532 1.71875s3.011718-.589844 4.042968-1.726563c.9375-1.03125 1.429688-2.320313 1.429688-3.722656 0-1.390625-.503906-2.679688-1.441406-3.730469zm0 0"/><path d="m100.558594 79.4375c-1.910156 0-3.570313-.71875-4.792969-2.058594-1.117187-1.242187-1.707031-2.777344-1.707031-4.429687 0-1.660157.589844-3.179688 1.699218-4.410157 2.371094-2.609374 7.261719-2.609374 9.597657-.019531h.011719c1.121093 1.25 1.714843 2.777344 1.714843 4.429688 0 1.660156-.59375 3.1875-1.707031 4.417969-1.222656 1.351562-2.898438 2.070312-4.816406 2.070312zm.007812-10.867188c-1.289062 0-2.480468.5-3.265625 1.371094-.761719.839844-1.152343 1.878906-1.152343 3.007813 0 1.132812.410156 2.183593 1.171874 3.03125 1.628907 1.816406 4.867188 1.796875 6.519532-.007813.761718-.839844 1.152344-1.878906 1.152344-3.023437 0-1.128907-.410157-2.167969-1.171876-3.027344-.78125-.863281-1.972656-1.351563-3.253906-1.351563zm0 0"/><path d="m54.371094 64.914062v-6.671874c0-1.230469.238281-1.632813.230468-1.632813.085938-.050781.476563-.179687 1.257813-.179687h3.558594v-10.601563h-3.308594c-2.339844 0-4.273437.230469-5.898437.699219-1.753907.496094-3.214844 1.25-4.332032 2.261718-1.132812 1.039063-1.960937 2.320313-2.460937 3.832032-.4375 1.339844-.660157 2.878906-.660157 4.558594v7.570312c0 .878906-.179687 1.546875-.511718 2-.21875.28125-.699219.40625-1.441406.40625h-2.308594v10.542969h2.308594c.503906 0 1.171874.070312 1.421874.402343.351563.449219.523438 1.125.523438 2.011719v7.566407c0 1.679687.21875 3.21875.660156 4.5625.496094 1.507812 1.328125 2.796874 2.46875 3.828124 1.109375 1 2.558594 1.761719 4.3125 2.257813 1.636719.46875 3.578125.699219 5.90625.699219h3.3125v-10.597656h-3.550781c-.722656 0-1.101563-.109376-1.230469-.15625-.082031-.132813-.257812-.554688-.257812-1.640626v-6.671874c0-2.011719-.292969-3.78125-.863282-5.269532-.320312-.808594-.777343-1.570312-1.378906-2.261718.601563-.703126 1.058594-1.449219 1.386719-2.277344.570313-1.5.855469-3.214844.855469-5.238282zm0 0"/><path d="m124.765625 67.148438c-.507813 0-1.167969-.070313-1.414063-.390626-.351562-.460937-.523437-1.136718-.523437-2.007812v-7.570312c0-1.679688-.230469-3.21875-.660156-4.546876-.488281-1.515624-1.316407-2.804687-2.46875-3.84375-1.121094-1.011718-2.570313-1.765624-4.3125-2.261718-1.636719-.46875-3.570313-.699219-5.910157-.699219h-3.308593v10.601563h3.558593c.78125 0 1.164063.128906 1.210938.128906 0 .023437.277344.023437.277344 1.675781v6.679687c0 2.003907.292968 3.777344.867187 5.265626.316407.8125.773438 1.570312 1.375 2.261718-.601562.699219-1.070312 1.460938-1.386719 2.28125-.570312 1.488282-.855468 3.207032-.855468 5.246094v6.671875c0 1.21875-.238282 1.621094-.226563 1.632813-.089843.046874-.480469.179687-1.269531.179687h-3.5625v10.59375h3.3125c2.328125 0 4.257812-.226563 5.886719-.695313 1.753906-.492187 3.203125-1.25 4.34375-2.261718 1.152343-1.050782 1.980469-2.339844 2.460937-3.828125.4375-1.355469.667969-2.882813.667969-4.5625v-7.585938c0-.886719.179687-1.554687.511719-2.003906.210937-.277344.699218-.417969 1.425781-.417969h2.316406v-10.542968zm0 0"/><path d="m571.777344 146.230469h-72.699219c-3.570313 0-6.878906-1.910157-8.65625-5.011719l-36.355469-63.117188c-1.785156-3.09375-1.785156-6.890624 0-9.980468l36.355469-63.121094c1.777344-3.089844 5.085937-5 8.65625-5h72.699219c3.570312 0 6.878906 1.910156 8.664062 5.007812l36.347656 63.121094c1.789063 3.089844 1.789063 6.890625 0 9.980469l-36.347656 63.121094c-1.785156 3.089843-5.09375 5-8.664062 5zm-66.917969-20h61.128906l30.589844-53.121094-30.589844-53.109375h-61.128906l-30.589844 53.121094zm0 0"/><path d="m517.398438 67.53125c-.011719 0-.011719 0 0 0-1.59375 0-3.0625.628906-4.039063 1.707031-.941406 1.03125-1.429687 2.320313-1.429687 3.710938 0 1.402343.496093 2.691406 1.441406 3.730469 1.019531 1.117187 2.40625 1.71875 4.015625 1.71875 1.613281 0 3.015625-.589844 4.039062-1.726563.941407-1.03125 1.429688-2.320313 1.429688-3.722656 0-1.390625-.496094-2.679688-1.4375-3.730469-.976563-1.078125-2.449219-1.6875-4.019531-1.6875zm-1.71875 7.046875"/><path d="m517.386719 79.4375c-1.90625 0-3.566407-.71875-4.789063-2.058594-1.117187-1.242187-1.707031-2.777344-1.707031-4.429687 0-1.660157.589844-3.179688 1.699219-4.410157 1.191406-1.296874 2.9375-2.050781 4.808594-2.050781 1.871093 0 3.609374.742188 4.789062 2.042969 1.117188 1.25 1.71875 2.777344 1.71875 4.429688 0 1.65625-.585938 3.191406-1.699219 4.417968-1.238281 1.339844-2.898437 2.058594-4.820312 2.058594zm.011719-10.867188c-1.289063 0-2.480469.5-3.273438 1.371094-.753906.839844-1.144531 1.878906-1.144531 3.007813 0 1.132812.410156 2.183593 1.171875 3.03125 1.625 1.816406 4.875 1.796875 6.515625-.007813.757812-.839844 1.148437-1.878906 1.148437-3.023437 0-1.128907-.410156-2.175781-1.167968-3.027344-.78125-.863281-1.972657-1.351563-3.25-1.351563zm0 0"/><path d="m535.296875 67.53125c-1.589844 0-3.050781.628906-4.035156 1.707031-.933594 1.03125-1.433594 2.308594-1.433594 3.710938 0 1.402343.5 2.691406 1.441406 3.730469 1.019531 1.117187 2.40625 1.71875 4.019531 1.71875 1.609376 0 3.007813-.589844 4.039063-1.726563.929687-1.03125 1.429687-2.320313 1.429687-3.722656 0-1.390625-.5-2.679688-1.441406-3.730469-.976562-1.078125-2.4375-1.6875-4.019531-1.6875zm0 0"/><path d="m535.296875 79.4375c-1.90625 0-3.566406-.707031-4.789063-2.058594-1.117187-1.214844-1.707031-2.761718-1.707031-4.429687 0-1.652344.589844-3.167969 1.699219-4.410157 1.191406-1.296874 2.9375-2.050781 4.796875-2.050781h.011719c1.871094 0 3.609375.742188 4.789062 2.042969 1.117188 1.25 1.710938 2.777344 1.710938 4.429688 0 1.65625-.59375 3.175781-1.699219 4.417968-1.230469 1.339844-2.902344 2.058594-4.8125 2.058594zm0-10.867188c-1.277344 0-2.46875.5-3.261719 1.371094-.746094.839844-1.144531 1.878906-1.144531 3.007813 0 1.144531.398437 2.191406 1.164063 3.03125 1.640624 1.808593 4.875 1.789062 6.523437-.007813.75-.839844 1.148437-1.890625 1.148437-3.023437 0-1.128907-.410156-2.175781-1.167968-3.027344-.789063-.863281-1.980469-1.351563-3.261719-1.351563zm0 0"/><path d="m557.226562 69.21875c-.976562-1.070312-2.445312-1.6875-4.019531-1.6875-1.582031 0-3.050781.628906-4.035156 1.707031-.945313 1.03125-1.433594 2.320313-1.433594 3.710938 0 1.402343.5 2.691406 1.441407 3.730469 1.019531 1.117187 2.40625 1.71875 4.019531 1.71875 1.609375 0 3.007812-.589844 4.039062-1.726563.941407-1.03125 1.429688-2.320313 1.429688-3.722656 0-1.390625-.5-2.679688-1.441407-3.730469zm0 0"/><path d="m553.199219 79.4375c-1.910157 0-3.570313-.71875-4.789063-2.058594-1.121094-1.242187-1.710937-2.777344-1.710937-4.429687 0-1.660157.589843-3.179688 1.699219-4.410157 2.367187-2.609374 7.261718-2.609374 9.601562-.019531h.007812c1.117188 1.25 1.710938 2.777344 1.710938 4.429688 0 1.660156-.59375 3.1875-1.699219 4.417969-1.230469 1.351562-2.902343 2.070312-4.820312 2.070312zm.007812-10.867188c-1.289062 0-2.480469.5-3.269531 1.371094-.757812.839844-1.148438 1.878906-1.148438 3.007813 0 1.132812.410157 2.183593 1.167969 3.03125 1.628907 1.816406 4.871094 1.796875 6.523438-.007813.757812-.839844 1.148437-1.878906 1.148437-3.023437 0-1.128907-.410156-2.167969-1.167968-3.027344-.78125-.863281-1.972657-1.351563-3.253907-1.351563zm0 0"/><path d="m507.007812 64.914062v-6.671874c0-1.230469.238282-1.632813.230469-1.632813.089844-.050781.480469-.179687 1.257813-.179687h3.558594v-10.601563h-3.304688c-2.34375 0-4.273438.230469-5.902344.699219-1.75.496094-3.207031 1.261718-4.332031 2.261718-1.136719 1.039063-1.96875 2.320313-2.457031 3.832032-.4375 1.347656-.65625 2.878906-.65625 4.558594v7.570312c0 .878906-.183594 1.546875-.515625 2-.207031.28125-.695313.417969-1.429688.417969h-2.308593v10.542969h2.308593c.503907 0 1.171875.066406 1.421875.398437.351563.449219.523438 1.128906.523438 2.011719v7.570312c0 1.679688.21875 3.214844.65625 4.558594.5 1.507812 1.328125 2.796875 2.472656 3.828125 1.109375 1 2.558594 1.765625 4.304688 2.261719 1.640624.46875 3.582031.699218 5.914062.699218h3.304688v-10.597656h-3.558594c-.71875 0-1.097656-.113281-1.230469-.160156-.066406-.132812-.257813-.550781-.257813-1.640625v-6.679687c0-2.011719-.289062-3.78125-.859374-5.269532-.316407-.808594-.78125-1.570312-1.382813-2.261718.601563-.703126 1.066406-1.449219 1.390625-2.277344.574219-1.5.851562-3.214844.851562-5.238282zm0 0"/><path d="m577.40625 67.148438c-.507812 0-1.164062-.070313-1.417969-.390626-.347656-.460937-.519531-1.136718-.519531-2.007812v-7.570312c0-1.679688-.230469-3.21875-.660156-4.546876-.492188-1.515624-1.320313-2.804687-2.46875-3.84375-1.125-1.011718-2.574219-1.765624-4.3125-2.261718-1.640625-.46875-3.570313-.699219-5.90625-.699219h-3.3125v10.601563h3.558594c.78125 0 1.164062.128906 1.210937.128906 0 .023437.28125.023437.28125 1.675781v6.679687c0 2.003907.292969 3.777344.859375 5.265626.320312.8125.78125 1.570312 1.378906 2.261718-.597656.699219-1.066406 1.460938-1.390625 2.28125-.570312 1.488282-.847656 3.207032-.847656 5.246094v6.671875c0 1.21875-.242187 1.621094-.230469 1.632813-.089844.046874-.480468.179687-1.269531.179687h-3.550781v10.59375h3.3125c2.328125 0 4.257812-.226563 5.886718-.695313 1.75-.492187 3.199219-1.25 4.339844-2.261718 1.148438-1.050782 1.980469-2.339844 2.460938-3.828125.441406-1.355469.671875-2.882813.671875-4.5625v-7.585938c0-.886719.179687-1.554687.507812-2.003906.207031-.277344.703125-.417969 1.429688-.417969h2.308593v-10.542968zm0 0"/><path d="m571.777344 620h-72.699219c-3.570313 0-6.878906-1.910156-8.65625-5.007812l-36.355469-63.121094c-1.785156-3.089844-1.785156-6.890625 0-9.980469l36.355469-63.121094c1.777344-3.101562 5.085937-5.011719 8.65625-5.011719h72.699219c3.570312 0 6.878906 1.910157 8.664062 5.011719l36.347656 63.121094c1.789063 3.089844 1.789063 6.890625 0 9.980469l-36.347656 63.121094c-1.785156 3.097656-5.09375 5.007812-8.664062 5.007812zm-66.917969-20h61.128906l30.589844-53.121094-30.589844-53.121094h-61.128906l-30.589844 53.121094zm0 0"/><path d="m517.398438 541.296875c-.011719 0-.011719 0 0 0-1.59375 0-3.0625.632813-4.039063 1.710937-.941406 1.03125-1.429687 2.324219-1.429687 3.710938 0 1.402344.496093 2.691406 1.441406 3.730469 1.019531 1.121093 2.40625 1.71875 4.015625 1.71875 1.613281 0 3.015625-.585938 4.039062-1.730469.941407-1.027344 1.429688-2.316406 1.429688-3.71875 0-1.386719-.496094-2.679688-1.4375-3.730469-.976563-1.078125-2.449219-1.691406-4.019531-1.691406zm-1.71875 7.054687"/><path d="m517.386719 553.207031c-1.90625 0-3.566407-.714843-4.789063-2.054687-1.117187-1.238282-1.707031-2.785156-1.707031-4.433594 0-1.660156.589844-3.179688 1.699219-4.410156 1.191406-1.296875 2.9375-2.050782 4.808594-2.050782 1.871093 0 3.609374.742188 4.789062 2.042969 1.117188 1.25 1.71875 2.777344 1.71875 4.425781 0 1.664063-.585938 3.195313-1.699219 4.425782-1.238281 1.339844-2.898437 2.054687-4.820312 2.054687zm.011719-10.867187c-1.289063 0-2.480469.503906-3.273438 1.371094-.753906.839843-1.144531 1.878906-1.144531 3.007812 0 1.132812.410156 2.183594 1.171875 3.03125 1.625 1.820312 4.875 1.796875 6.515625-.007812.757812-.839844 1.148437-1.882813 1.148437-3.023438 0-1.128906-.410156-2.179688-1.167968-3.027344-.78125-.859375-1.972657-1.351562-3.25-1.351562zm0 0"/><path d="m535.296875 541.296875c-1.589844 0-3.050781.632813-4.035156 1.710937-.933594 1.03125-1.433594 2.3125-1.433594 3.710938 0 1.402344.5 2.691406 1.441406 3.730469 1.019531 1.121093 2.40625 1.71875 4.019531 1.71875 1.609376 0 3.007813-.585938 4.039063-1.730469.929687-1.027344 1.429687-2.316406 1.429687-3.71875 0-1.386719-.5-2.679688-1.441406-3.730469-.976562-1.078125-2.4375-1.691406-4.019531-1.691406zm0 0"/><path d="m535.296875 553.207031c-1.90625 0-3.566406-.707031-4.789063-2.054687-1.117187-1.222656-1.707031-2.761719-1.707031-4.433594 0-1.648438.589844-3.167969 1.699219-4.410156 1.191406-1.296875 2.9375-2.050782 4.796875-2.050782h.011719c1.871094 0 3.609375.742188 4.789062 2.042969 1.117188 1.25 1.710938 2.777344 1.710938 4.425781 0 1.664063-.59375 3.1875-1.699219 4.425782-1.230469 1.339844-2.902344 2.054687-4.8125 2.054687zm0-10.867187c-1.277344 0-2.46875.503906-3.261719 1.371094-.746094.839843-1.144531 1.878906-1.144531 3.007812 0 1.140625.398437 2.191406 1.164063 3.03125 1.640624 1.808594 4.875 1.789062 6.523437-.007812.75-.839844 1.148437-1.890626 1.148437-3.023438 0-1.128906-.410156-2.179688-1.167968-3.027344-.789063-.859375-1.980469-1.351562-3.261719-1.351562zm0 0"/><path d="m557.226562 542.988281c-.976562-1.070312-2.445312-1.691406-4.019531-1.691406-1.582031 0-3.050781.632813-4.035156 1.710937-.945313 1.03125-1.433594 2.324219-1.433594 3.710938 0 1.402344.5 2.691406 1.441407 3.730469 1.019531 1.121093 2.40625 1.71875 4.019531 1.71875 1.609375 0 3.007812-.585938 4.039062-1.730469.941407-1.027344 1.429688-2.316406 1.429688-3.71875 0-1.386719-.5-2.679688-1.441407-3.730469zm0 0"/><path d="m553.199219 553.207031c-1.910157 0-3.570313-.714843-4.789063-2.054687-1.121094-1.238282-1.710937-2.785156-1.710937-4.433594 0-1.660156.589843-3.179688 1.699219-4.410156 2.367187-2.605469 7.261718-2.605469 9.601562-.019532h.007812c1.117188 1.25 1.710938 2.78125 1.710938 4.429688 0 1.660156-.59375 3.195312-1.699219 4.417969-1.230469 1.355469-2.902343 2.070312-4.820312 2.070312zm.007812-10.867187c-1.289062 0-2.480469.503906-3.269531 1.371094-.757812.839843-1.148438 1.878906-1.148438 3.007812 0 1.132812.410157 2.183594 1.167969 3.03125 1.628907 1.820312 4.871094 1.796875 6.523438-.007812.757812-.839844 1.148437-1.882813 1.148437-3.023438 0-1.128906-.410156-2.167969-1.167968-3.027344-.78125-.859375-1.972657-1.351562-3.253907-1.351562zm0 0"/><path d="m507.007812 538.679688v-6.667969c0-1.230469.238282-1.628907.230469-1.628907.089844-.050781.480469-.183593 1.257813-.183593h3.558594v-10.597657h-3.304688c-2.34375 0-4.273438.226563-5.902344.695313-1.75.492187-3.207031 1.261719-4.332031 2.261719-1.136719 1.039062-1.96875 2.320312-2.457031 3.832031-.4375 1.347656-.65625 2.875-.65625 4.5625v7.566406c0 .878907-.183594 1.550781-.515625 1.996094-.207031.285156-.695313.425781-1.429688.425781h-2.308593v10.539063h2.308593c.503907 0 1.171875.066406 1.421875.398437.351563.449219.523438 1.128906.523438 2.011719v7.570313c0 1.679687.21875 3.21875.65625 4.558593.5 1.511719 1.328125 2.800781 2.472656 3.828125 1.109375 1.003906 2.558594 1.761719 4.304688 2.261719 1.640624.46875 3.582031.699219 5.914062.699219h3.304688v-10.597656h-3.558594c-.71875 0-1.097656-.109376-1.230469-.160157-.066406-.132812-.257813-.550781-.257813-1.640625v-6.679687c0-2.011719-.289062-3.777344-.859374-5.269531-.316407-.808594-.78125-1.570313-1.382813-2.257813.601563-.703125 1.066406-1.453125 1.390625-2.28125.574219-1.492187.851562-3.214844.851562-5.242187zm0 0"/><path d="m577.40625 540.929688c-.507812 0-1.164062-.070313-1.417969-.386719-.347656-.464844-.519531-1.144531-.519531-2.011719v-7.570312c0-1.679688-.230469-3.222657-.660156-4.550782-.492188-1.507812-1.320313-2.800781-2.46875-3.839844-1.125-1.011718-2.574219-1.769531-4.3125-2.261718-1.640625-.46875-3.570313-.699219-5.90625-.699219h-3.3125v10.601563h3.558594c.78125 0 1.164062.132812 1.210937.132812 0 .015625.28125.015625.28125 1.667969v6.679687c0 2.007813.292969 3.777344.859375 5.269532.320312.808593.78125 1.570312 1.378906 2.257812-.597656.699219-1.066406 1.460938-1.390625 2.28125-.570312 1.492188-.847656 3.210938-.847656 5.25v6.671875c0 1.21875-.242187 1.617187-.230469 1.628906-.089844.050781-.480468.179688-1.269531.179688h-3.550781v10.601562h3.3125c2.328125 0 4.257812-.234375 5.886718-.703125 1.75-.488281 3.199219-1.25 4.339844-2.261718 1.148438-1.046876 1.980469-2.335938 2.460938-3.828126.441406-1.347656.671875-2.878906.671875-4.558593v-7.570313c0-.878906.179687-1.550781.507812-2 .207031-.277344.703125-.421875 1.429688-.421875h2.308593v-10.535156h-2.320312zm0 0"/><path d="m119.125 620h-72.683594c-3.574218 0-6.886718-1.910156-8.671875-5.007812l-36.351562-63.121094c-1.777344-3.089844-1.777344-6.890625 0-9.980469l36.351562-63.121094c1.785157-3.101562 5.085938-5.011719 8.671875-5.011719h72.683594c3.574219 0 6.882812 1.910157 8.671875 5.011719l36.355469 63.121094c1.777344 3.089844 1.777344 6.890625 0 9.980469l-36.355469 63.121094c-1.789063 3.097656-5.085937 5.007812-8.671875 5.007812zm-66.898438-20h61.132813l30.589844-53.121094-30.589844-53.121094h-61.132813l-30.589843 53.121094zm0 0"/><path d="m64.757812 541.296875c-.011718 0-.011718 0 0 0-1.589843 0-3.058593.632813-4.039062 1.710937-.9375 1.03125-1.429688 2.324219-1.429688 3.710938 0 1.402344.5 2.691406 1.4375 3.730469 1.023438 1.121093 2.414063 1.71875 4.019532 1.71875 1.613281 0 3.011718-.585938 4.042968-1.730469.9375-1.027344 1.429688-2.316406 1.429688-3.71875 0-1.386719-.5-2.679688-1.4375-3.730469-.984375-1.078125-2.453125-1.691406-4.023438-1.691406zm-1.71875 7.054687"/><path d="m64.746094 553.207031c-1.910156 0-3.570313-.714843-4.789063-2.054687-1.117187-1.238282-1.710937-2.785156-1.710937-4.433594 0-1.660156.59375-3.179688 1.699218-4.410156 1.191407-1.296875 2.941407-2.050782 4.8125-2.050782 1.867188 0 3.613282.742188 4.789063 2.042969 1.121094 1.25 1.722656 2.777344 1.722656 4.425781 0 1.664063-.589843 3.195313-1.699219 4.425782-1.238281 1.339844-2.898437 2.054687-4.824218 2.054687zm.011718-10.867187c-1.289062 0-2.476562.503906-3.269531 1.371094-.761719.839843-1.152343 1.878906-1.152343 3.007812 0 1.132812.410156 2.183594 1.171874 3.03125 1.632813 1.820312 4.878907 1.796875 6.519532-.007812.761718-.839844 1.152344-1.882813 1.152344-3.023438 0-1.128906-.410157-2.179688-1.171876-3.027344-.78125-.859375-1.96875-1.351562-3.25-1.351562zm0 0"/><path d="m82.65625 541.296875c-1.585938 0-3.046875.632813-4.039062 1.710937-.925782 1.03125-1.429688 2.3125-1.429688 3.710938 0 1.402344.503906 2.691406 1.441406 3.730469 1.019532 1.121093 2.410156 1.71875 4.019532 1.71875 1.609374 0 3.011718-.585938 4.042968-1.730469.925782-1.027344 1.429688-2.316406 1.429688-3.71875 0-1.386719-.503906-2.679688-1.441406-3.730469-.980469-1.078125-2.441407-1.691406-4.023438-1.691406zm0 0"/><path d="m82.65625 553.207031c-1.910156 0-3.570312-.707031-4.789062-2.054687-1.117188-1.222656-1.710938-2.761719-1.710938-4.433594 0-1.648438.59375-3.167969 1.699219-4.410156 1.191406-1.296875 2.941406-2.050782 4.800781-2.050782h.011719c1.867187 0 3.613281.742188 4.789062 2.042969 1.121094 1.25 1.714844 2.777344 1.714844 4.425781 0 1.664063-.59375 3.1875-1.707031 4.425782-1.222656 1.339844-2.894532 2.054687-4.808594 2.054687zm0-10.867187c-1.277344 0-2.464844.503906-3.257812 1.371094-.75.839843-1.152344 1.878906-1.152344 3.007812 0 1.140625.402344 2.191406 1.171875 3.03125 1.640625 1.808594 4.871093 1.789062 6.519531-.007812.753906-.839844 1.152344-1.890626 1.152344-3.023438 0-1.128906-.410156-2.179688-1.171875-3.027344-.789063-.859375-1.976563-1.351562-3.261719-1.351562zm0 0"/><path d="m104.589844 542.988281c-.980469-1.070312-2.449219-1.691406-4.023438-1.691406-1.578125 0-3.046875.632813-4.039062 1.710937-.941406 1.03125-1.429688 2.324219-1.429688 3.710938 0 1.402344.5 2.691406 1.441406 3.730469 1.019532 1.121093 2.410157 1.71875 4.019532 1.71875s3.011718-.585938 4.042968-1.730469c.9375-1.027344 1.429688-2.316406 1.429688-3.71875 0-1.386719-.503906-2.679688-1.441406-3.730469zm0 0"/><path d="m100.558594 553.207031c-1.910156 0-3.570313-.714843-4.792969-2.054687-1.117187-1.238282-1.707031-2.785156-1.707031-4.433594 0-1.660156.589844-3.179688 1.699218-4.410156 2.371094-2.605469 7.261719-2.605469 9.597657-.019532h.011719c1.121093 1.25 1.714843 2.78125 1.714843 4.429688 0 1.660156-.59375 3.195312-1.707031 4.417969-1.222656 1.355469-2.898438 2.070312-4.816406 2.070312zm.007812-10.867187c-1.289062 0-2.480468.503906-3.265625 1.371094-.761719.839843-1.152343 1.878906-1.152343 3.007812 0 1.132812.410156 2.183594 1.171874 3.03125 1.628907 1.820312 4.867188 1.796875 6.519532-.007812.761718-.839844 1.152344-1.882813 1.152344-3.023438 0-1.128906-.410157-2.167969-1.171876-3.027344-.78125-.859375-1.972656-1.351562-3.253906-1.351562zm0 0"/><path d="m54.371094 538.679688v-6.667969c0-1.230469.238281-1.628907.230468-1.628907.085938-.050781.476563-.183593 1.257813-.183593h3.558594v-10.597657h-3.308594c-2.339844 0-4.273437.226563-5.898437.695313-1.753907.492187-3.214844 1.261719-4.332032 2.261719-1.140625 1.039062-1.972656 2.320312-2.460937 3.832031-.4375 1.347656-.660157 2.875-.660157 4.5625v7.566406c0 .878907-.179687 1.550781-.511718 1.996094-.210938.285156-.699219.425781-1.425782.425781h-2.324218v10.539063h2.308594c.503906 0 1.171874.066406 1.421874.398437.351563.449219.523438 1.128906.523438 2.011719v7.570313c0 1.679687.21875 3.21875.660156 4.558593.496094 1.511719 1.328125 2.800781 2.46875 3.828125 1.109375 1.003906 2.558594 1.761719 4.3125 2.261719 1.636719.46875 3.578125.699219 5.90625.699219h3.3125v-10.597656h-3.550781c-.722656 0-1.101563-.109376-1.230469-.160157-.074218-.132812-.257812-.550781-.257812-1.640625v-6.679687c0-2.011719-.292969-3.777344-.863282-5.269531-.320312-.808594-.777343-1.570313-1.378906-2.257813.601563-.703125 1.058594-1.453125 1.386719-2.28125.570313-1.492187.855469-3.214844.855469-5.242187zm0 0"/><path d="m124.765625 540.929688c-.507813 0-1.167969-.070313-1.414063-.386719-.351562-.464844-.523437-1.144531-.523437-2.011719v-7.570312c0-1.679688-.230469-3.222657-.660156-4.550782-.488281-1.507812-1.316407-2.800781-2.46875-3.839844-1.121094-1.011718-2.570313-1.769531-4.3125-2.261718-1.636719-.46875-3.570313-.699219-5.910157-.699219h-3.308593v10.601563h3.558593c.78125 0 1.164063.132812 1.210938.132812 0 .015625.277344.015625.277344 1.667969v6.679687c0 2.007813.292968 3.777344.867187 5.269532.316407.808593.773438 1.570312 1.375 2.257812-.601562.699219-1.070312 1.460938-1.386719 2.28125-.570312 1.492188-.855468 3.210938-.855468 5.25v6.671875c0 1.21875-.238282 1.617187-.226563 1.628906-.089843.050781-.480469.179688-1.269531.179688h-3.5625v10.601562h3.3125c2.328125 0 4.257812-.234375 5.886719-.703125 1.753906-.488281 3.203125-1.25 4.34375-2.261718 1.152343-1.046876 1.980469-2.335938 2.460937-3.828126.4375-1.347656.667969-2.878906.667969-4.558593v-7.570313c0-.878906.179687-1.550781.511719-2 .210937-.277344.699218-.421875 1.425781-.421875h2.316406v-10.535156h-2.316406zm0 0"/><path d="m435.597656 294.75-18.582031-4.835938 15.535156-9.984374c9.339844-6.007813 12.058594-18.507813 6.039063-27.851563v-.007813l-23.128906-35.890624c-6.023438-9.347657-18.511719-12.058594-27.863282-6.039063l-15.859375 10.167969 5.78125 8.203125-6.324219-8.960938 3.921876-18.03125c1.152343-5.269531.171874-10.660156-2.75-15.191406-2.917969-4.527344-7.429688-7.65625-12.679688-8.789063l-41.765625-9.046874c-10.90625-2.382813-21.621094 4.558593-23.980469 15.417968l-3.730468 18.503906c-.140626.015626-.863282.046876-1 .066407l-10.222657-15.859375c-6.007812-9.332032-18.507812-12.042969-27.859375-6.039063l-35.953125 23.109375c-4.515625 2.910156-7.644531 7.417969-8.789062 12.671875-1.136719 5.277344-.171875 10.667969 2.75 15.183594l9.921875 16.953125-18.300782-4.28125c-5.308593-1.242188-10.757812-.308594-15.355468 2.59375-4.605469 2.910156-7.773438 7.4375-8.933594 12.757812l-9.023438 41.546876c-1.144531 5.273437-.164062 10.675781 2.753907 15.203124 2.921875 4.519532 7.429687 7.648438 12.675781 8.777344l18.605469 4.703125-15.894531 10.207031c-4.527344 2.914063-7.644532 7.414063-8.789063 12.683594-1.136719 5.269532-.171875 10.660156 2.75 15.191406l23.128906 35.886719c6.011719 9.332031 18.511719 12.058594 27.863281 6.039063l16.496094-9.808594-3.996094 18.441406c-1.148437 5.269532-.171874 10.667969 2.746094 15.195313 2.921875 4.523437 7.433594 7.652343 12.683594 8.785156l41.769531 9.046875c1.433594.3125 2.882813.460938 4.316407.460938 3.824218 0 7.574218-1.078126 10.820312-3.210938 4.53125-2.90625 7.664062-7.421875 8.804688-12.679688l4.507812-18.898437 10.4375 16.1875c6.011719 9.34375 18.503906 12.042969 27.863281 6.042969l35.941407-23.113282c4.527343-2.90625 7.648437-7.421874 8.789062-12.667968 1.15625-5.277344.171875-10.667969-2.738281-15.183594l-9.800781-16.457031 18.476562 4.003906c10.8125 2.28125 21.601562-4.582031 23.960938-15.4375l9.101562-41.878906c2.308594-10.699219-4.476562-21.40625-15.121094-23.886719zm-13.699218 61.691406-18.480469-4c-8.015625-1.722656-16.191407 1.507813-21.070313 8.558594-4.671875 6.710938-4.816406 15.5-.390625 22.378906l10.183594 16.078125-36.164063 23.050781-10.4375-16.199218c-4.761718-7.359375-13.601562-10.832032-22.179687-8.539063-7.390625 1.941407-12.992187 7.773438-14.609375 15.21875l-4.28125 18.929688-41.890625-9.226563 4-18.441406c1.753906-8.007812-1.488281-16.199219-8.558594-21.070312-3.464843-2.398438-7.472656-3.609376-11.480469-3.609376-3.78125 0-7.570312 1.070313-10.890624 3.199219l-16.121094 10.160157-23.078125-36.097657 15.878906-10.210937c6.890625-4.441406 10.390625-12.488282 8.847656-20.933594-1.4375-8.066406-7.546875-14.398438-15.554687-16.136719l-18.59375-4.179687 9.222656-41.679688 18.296875 4.277344c8.671875 2.023438 17.480469-1.75 22.242187-9.886719 3.929688-6.601562 3.777344-14.730469-.382812-21.203125l-10.375-16.371094 36.167969-23.046874 10.226562 15.867187c4.433594 6.882813 12.5 10.402344 20.933594 8.839844 8.058594-1.433594 14.398437-7.539063 16.136719-15.558594l4.199218-18.546875 41.890626 9.226562-3.914063 18.042969c-1.851563 8.558594 1.957031 17.253907 10.085937 21.988281 6.59375 3.910157 14.710938 3.769532 21.191407-.382812l15.707031-9.898438 23.132812 35.898438-15.546874 10.183594c-7.375 4.722656-10.839844 13.578125-8.550782 22.25 1.878906 7.28125 7.597656 12.863281 14.90625 14.570312l18.589844 4.496094zm0 0"/><path d="m256.878906 310 28.800782-11.859375-6.039063-17.988281-52.421875 22.25v15.195312l52.410156 22.25 6.058594-17.949218zm0 0"/><path d="m317.875 255.308594-38.195312 109.382812h20.878906l37.949218-109.382812zm0 0"/><path d="m338.578125 280.152344-6.039063 17.988281 28.800782 11.859375-28.808594 11.898438 6.058594 17.949218 52.40625-22.25v-15.195312zm0 0"/></svg>