<svg id="Layer_1" height="512" viewBox="0 0 64 64" width="512" xmlns="http://www.w3.org/2000/svg"><path d="m34 61h29v2h-29z"/><path d="m43 59v-4c0-.55-.45-1-1-1h-5c-.55 0-1 .45-1 1v4h2v-3h3v3z"/><path d="m52 59v-11c0-.55-.45-1-1-1h-5c-.55 0-1 .45-1 1v11h2v-10h3v10z"/><path d="m61 59v-18c0-.55-.45-1-1-1h-5c-.55 0-1 .45-1 1v18h2v-17h3v17z"/><path d="m44.6 27.59c.87-.9.87-2.33-.02-3.22l-1.94-1.94c-.89-.89-2.33-.89-3.22-.02 0 0-.02.02-.02.02-.1.1-.25.13-.36.07-.69-.36-1.42-.66-2.16-.9-.12-.04-.2-.16-.2-.3 0-1.26-1.03-2.29-2.29-2.29h-2.75c-1.26 0-2.29 1.03-2.29 2.32 0 .12-.07.24-.17.27-.75.23-1.49.54-2.19.9-.11.06-.26.03-.36-.07 0 0-.01-.01-.02-.02-.9-.87-2.33-.87-3.22.02l-1.94 1.94c-.89.89-.89 2.33-.02 3.22 0 0 .02.02.02.02.1.1.13.25.07.36-.36.69-.66 1.42-.9 2.16-.04.12-.16.2-.3.2-1.26 0-2.29 1.03-2.29 2.29v2.75c0 1.26 1.03 2.29 2.29 2.29.14 0 .27.08.3.2.23.74.53 1.47.9 2.16.06.11.03.26-.07.36 0 0-.01.01-.02.02-.87.9-.87 2.33.02 3.22l1.94 1.94c.89.89 2.33.89 3.22.02 0 0 .02-.02.02-.02.1-.1.25-.13.36-.07.69.36 1.42.66 2.16.9.12.04.2.16.2.3 0 1.26 1.03 2.29 2.29 2.29h2.75c1.26 0 2.29-1.03 2.29-2.29 0-.14.08-.27.2-.3.74-.23 1.47-.53 2.16-.9.11-.06.26-.03.36.07 0 0 .01.01.02.02.9.87 2.34.87 3.22-.02l1.94-1.94c.89-.89.89-2.33.02-3.22 0 0-.02-.02-.02-.02-.1-.1-.13-.25-.07-.36.37-.7.67-1.44.9-2.19.03-.1.14-.18.29-.18 1.26 0 2.29-1.03 2.29-2.29v-2.75c0-1.26-1.03-2.29-2.29-2.29-.14 0-.27-.08-.3-.2-.23-.74-.53-1.47-.9-2.16-.06-.11-.03-.26.07-.36 0 0 .01-.01.02-.02zm1.11 4.75c.16 0 .29.13.29.29v2.75c0 .16-.13.29-.32.29-1.01 0-1.88.64-2.18 1.58-.2.63-.45 1.25-.76 1.85-.47.89-.3 1.96.4 2.69 0 0 .02.02.02.02.11.11.11.3 0 .41l-1.94 1.94c-.11.12-.3.11-.41 0 0 0-.01-.01-.02-.02-.73-.71-1.8-.87-2.69-.41-.58.31-1.2.56-1.82.76-.96.3-1.61 1.19-1.61 2.21 0 .16-.13.29-.29.29h-2.75c-.16 0-.29-.13-.29-.29 0-1.02-.65-1.91-1.61-2.21-.63-.2-1.24-.45-1.82-.76-.34-.18-.7-.26-1.06-.26-.59 0-1.17.23-1.62.67 0 0-.02.02-.02.02-.11.11-.3.11-.41 0l-1.94-1.94c-.11-.11-.11-.3 0-.41 0 0 .01-.01.02-.02.71-.72.87-1.8.41-2.69-.31-.58-.56-1.2-.76-1.82-.3-.96-1.19-1.61-2.21-1.61-.16 0-.29-.13-.29-.29v-2.75c0-.16.13-.29.29-.29 1.02 0 1.91-.65 2.21-1.61.2-.63.45-1.24.76-1.82.47-.89.3-1.96-.4-2.69 0 0-.02-.02-.02-.02-.11-.11-.11-.3 0-.41l1.94-1.94c.12-.11.3-.11.41 0 0 0 .01.01.02.02.72.71 1.8.87 2.69.41.59-.31 1.21-.57 1.85-.76.95-.29 1.58-1.17 1.58-2.21 0-.16.13-.29.29-.29h2.75c.16 0 .29.13.29.29 0 1.02.65 1.91 1.61 2.21.63.2 1.24.45 1.82.76.89.46 1.96.3 2.69-.4 0 0 .02-.02.02-.02.11-.11.3-.12.41 0l1.94 1.94c.11.11.11.3 0 .41 0 0-.01.01-.02.02-.71.72-.87 1.8-.41 2.69.31.58.56 1.2.76 1.82.3.96 1.19 1.61 2.21 1.61z"/><path d="m33 25c-4.96 0-9 4.04-9 9s4.04 9 9 9 9-4.04 9-9-4.04-9-9-9zm0 16c-3.86 0-7-3.14-7-7s3.14-7 7-7 7 3.14 7 7-3.14 7-7 7z"/><path d="m48 1c-8.27 0-15 6.73-15 15h2c0-6.83 5.3-12.44 12-12.95v12.95c0 .27.11.52.29.71l9.15 9.15c-1.82 1.57-4.08 2.65-6.58 3.01l.28 1.98c7.33-1.05 12.86-7.43 12.86-14.85 0-8.27-6.73-15-15-15zm9.86 23.44-8.86-8.86v-12.53c6.7.51 12 6.12 12 12.95 0 3.19-1.18 6.15-3.14 8.44z"/><path d="m4 31c1.3 0 2.4-.84 2.82-2h1.77l2.71 2.71c.19.19.44.29.71.29h4v-2h-3.59l-2.71-2.71c-.19-.19-.44-.29-.71-.29h-2.18c-.41-1.16-1.51-2-2.82-2-1.65 0-3 1.35-3 3s1.35 3 3 3zm0-4c.55 0 1 .45 1 1s-.45 1-1 1-1-.45-1-1 .45-1 1-1z"/><path d="m4 19c1.3 0 2.4-.84 2.82-2h3.03l3.24 7.4c.16.36.52.6.92.6h5v-2h-4.35l-3.24-7.4c-.16-.36-.52-.6-.92-.6h-3.68c-.41-1.16-1.51-2-2.82-2-1.65 0-3 1.35-3 3s1.35 3 3 3zm0-4c.55 0 1 .45 1 1s-.45 1-1 1-1-.45-1-1 .45-1 1-1z"/><path d="m4 43c1.3 0 2.4-.84 2.82-2h2.18c.27 0 .52-.11.71-.29l2.71-2.71h3.59v-2h-4c-.27 0-.52.11-.71.29l-2.71 2.71h-1.77c-.41-1.16-1.51-2-2.82-2-1.65 0-3 1.35-3 3s1.35 3 3 3zm0-4c.55 0 1 .45 1 1s-.45 1-1 1-1-.45-1-1 .45-1 1-1z"/><path d="m4 55c1.3 0 2.4-.84 2.82-2h3.68c.4 0 .76-.24.92-.6l3.24-7.4h4.35v-2h-5c-.4 0-.76.24-.92.6l-3.24 7.4h-3.03c-.41-1.16-1.51-2-2.82-2-1.65 0-3 1.35-3 3s1.35 3 3 3zm0-4c.55 0 1 .45 1 1s-.45 1-1 1-1-.45-1-1 .45-1 1-1z"/></svg>