<svg id="Layer_1" enable-background="new 0 0 468 468" height="512" viewBox="0 0 468 468" width="512" xmlns="http://www.w3.org/2000/svg"><g fill="rgb(0,0,0)"><g><circle cx="175.582" cy="70.686" r="6.5"/><g><path d="m421.091 171.82h-137.814l-2.908-13.087c-.508-2.287-2.537-3.915-4.881-3.915h-41.691c-2.762 0-5 2.238-5 5s2.238 5 5 5h37.681l19.857 89.361c.508 2.287 2.537 3.915 4.881 3.915h97.814c2.117 0 4.005-1.333 4.712-3.328l27.061-76.274c.543-1.53 1.117-6.332-4.712-6.672zm-30.592 76.275h-90.272l-14.727-66.275h128.512z"/><g><path d="m315.417 315.866c-11.046 0-20.033-8.962-20.033-19.979s8.987-19.979 20.033-19.979c11.047 0 20.034 8.963 20.034 19.979s-8.987 19.979-20.034 19.979z"/><path d="m375.552 315.866c-11.047 0-20.034-8.962-20.034-19.979s8.987-19.979 20.034-19.979c11.046 0 20.033 8.963 20.033 19.979s-8.987 19.979-20.033 19.979z"/></g></g></g><g><path d="m431 39.867h-209.116c-13.785 0-25 11.215-25 25v210.835c-9.533 6.071-20.51 9.271-31.912 9.271-32.827 0-59.534-26.706-59.534-59.533v-44.184c10.865-2.291 19.042-11.887 19.042-23.345 0-13.16-10.785-23.867-24.042-23.867-13.258 0-24.043 10.707-24.043 23.867 0 11.458 8.177 21.054 19.043 23.345v44.184c0 38.341 31.193 69.533 69.534 69.533 11.227 0 22.099-2.666 31.912-7.75v23.32h-115.152c-13.785 0-25 11.215-25 25v60.467h-19.732c-8.271 0-15-6.729-15-15v-306.334h128.884c2.762 0 5-2.238 5-5s-2.238-5-5-5h-127.12l13.521-44.074c1.945-6.341 7.708-10.602 14.34-10.602h226.912c6.633 0 12.396 4.261 14.341 10.602.811 2.641 3.608 4.12 6.247 3.313 2.64-.811 4.123-3.606 3.313-6.247-3.242-10.567-12.847-17.668-23.901-17.668h-226.912c-11.054 0-20.658 7.101-23.9 17.668l-15.505 50.541c-.142.478-.204.973-.22 1.467v311.334c0 13.785 11.215 25 25 25h19.732v36.99c0 13.785 11.215 25 25 25h166.698c13.785 0 25-11.215 25-25v-107.457c0-13.785-11.215-25-25-25h-41.546v-245.676c0-8.271 6.729-15 15-15h69.792v10.955c0 19.134 15.566 34.7 34.699 34.7h.134c19.133 0 34.699-15.566 34.699-34.7v-10.955h69.792c8.271 0 15 6.729 15 15v378.133c0 8.271-6.729 15-15 15h-138.57c-2.762 0-5 2.238-5 5s2.238 5 5 5h138.57c13.785 0 25-11.215 25-25v-378.133c0-13.785-11.215-25-25-25zm-167.57 403.133c0 8.271-6.729 15-15 15h-166.698c-8.271 0-15-6.729-15-15v-86.159h196.698zm63.012-369.314c-3.875 0-7.016-3.129-7.016-6.99 0-3.86 3.141-6.99 7.016-6.99s7.016 3.13 7.016 6.99c0 3.861-3.142 6.99-7.016 6.99z"/><g><g><path d="m233.073 393.953h-46.338c-2.762 0-5-2.238-5-5s2.238-5 5-5h46.338c2.762 0 5 2.238 5 5s-2.238 5-5 5z"/><path d="m233.073 430.888h-46.338c-2.762 0-5-2.238-5-5s2.238-5 5-5h46.338c2.762 0 5 2.238 5 5s-2.238 5-5 5z"/></g><path d="m144.67 433.866h-37.58c-8.271 0-15-6.729-15-15v-22.891c0-8.271 6.729-15 15-15h37.58c8.271 0 15 6.729 15 15v22.891c0 8.272-6.729 15-15 15zm-37.58-42.89c-2.757 0-5 2.243-5 5v22.891c0 2.757 2.243 5 5 5h37.58c2.757 0 5-2.243 5-5v-22.891c0-2.757-2.243-5-5-5z"/></g></g></g></svg>