<svg clip-rule="evenodd" fill-rule="evenodd" height="512" image-rendering="optimizeQuality" shape-rendering="geometricPrecision" text-rendering="geometricPrecision" viewBox="0 0 43.3492 43.3492" width="512" xmlns="http://www.w3.org/2000/svg"><g id="Layer_x0020_1"><g id="_351380352"><path id="_351380952" d="m42.8761 33.1126h-42.4029c-.2614 0-.4733-.2119-.4733-.4732v-26.0073c0-.2622.2119-.4731.4732-.4731h8.4501c.2613 0 .4732.211.4732.4732 0 .2612-.2119.4732-.4732.4732h-7.9768v25.0608h41.4564v-25.0608h-7.9771c-.2613 0-.4732-.2119-.4732-.4732.0001-.2623.2119-.4732.4732-.4732h8.4504c.2612 0 .4731.211.4731.4732l.0001 26.0072c0 .2613-.212.4733-.4732.4732z"/><path id="_351381168" d="m39.8622 30.0988h-36.3753c-.2614 0-.4732-.2109-.4732-.4732v-19.9806c0-.2613.2118-.4732.4732-.4732h5.4363c.2613 0 .4731.212.4731.4732 0 .2622-.2118.4732-.4731.4732h-4.9631v19.0342h35.4287v-19.0342h-4.9631c-.2613 0-.4732-.211-.4732-.4732.0001-.2613.2119-.4732.4732-.4732h5.4365c.2613 0 .4732.212.4732.4732v19.9806c0 .2623-.2119.4732-.4732.4732z"/><path id="_351380880" d="m14.7956 42.3404h13.7576v-1.6543c0-.9119-.7423-1.6543-1.6546-1.6543h-10.4484c-.9123 0-1.6546.7424-1.6546 1.6543zm14.2309.9464h-14.7041c-.2614 0-.4732-.2109-.4732-.4732v-2.1275c0-1.4344 1.1667-2.6007 2.601-2.6007l10.4484-.0001c1.4343 0 2.601 1.1664 2.601 2.6008l.0001 2.1275c0 .2623-.2119.4732-.4732.4732z"/><path id="_351381384" d="m25.4067 39.0318c-.2005 0-.3867-.1281-.4508-.3302-.6602-2.0743-.5469-4.1762.3366-6.2475.1026-.2406.3804-.352.621-.2494.2404.1025.3521.3805.2496.6211-.7921 1.8563-.8947 3.7364-.3053 5.5889.0793.2494-.0584.5156-.3075.5945-.0476.0157-.0961.0226-.1436.0226z"/><path id="_351381576" d="m17.9421 39.0318c-.0475 0-.096-.0069-.1437-.0226-.249-.0789-.3866-.3451-.3074-.5945.5894-1.8525.4868-3.7325-.3053-5.5889-.1026-.2406.0092-.5186.2496-.6211.2402-.1026.5183.0088.6209.2494.8836 2.0703.9969 4.1732.3367 6.2475-.064.2021-.2503.3302-.4508.3302z"/><path id="_351380976" d="m9.3964 22.8517h24.5563v-21.8429h-24.5563zm25.0293.9465h-25.5025c-.2614 0-.4733-.211-.4733-.4733l.0001-22.7893c0-.2613.2118-.4732.4732-.4732l25.5025-.0001c.2614 0 .4732.212.4732.4733l.0001 22.7893c0 .2622-.2119.4733-.4733.4733z"/><path id="_351381312" d="m34.4257 6.0002h-25.5025c-.2614 0-.4733-.2119-.4733-.4732.0001-.2613.2119-.4732.4733-.4732h25.5025c.2614 0 .4732.212.4732.4732.0001.2612-.2118.4733-.4732.4732z"/><path id="_351381504" d="m31.8824 3.504h-2.1346c-.2613 0-.4733-.2109-.4733-.4722 0-.2623.2119-.4732.4733-.4732l2.1346-.0001c.2614 0 .4732.211.4732.4733 0 .2612-.2119.4722-.4732.4722z"/><path id="_351380328" d="m27.2049 3.504h-2.1347c-.2613 0-.4732-.2109-.4732-.4722 0-.2623.2119-.4732.4732-.4732l2.1347-.0001c.2614 0 .4732.211.4732.4733.0001.2612-.2118.4722-.4732.4722z"/><path id="_351380256" d="m22.5275 3.504h-2.1347c-.2613 0-.4733-.2109-.4733-.4722 0-.2623.2119-.4732.4733-.4732l2.1347-.0001c.2614 0 .4732.211.4732.4733 0 .2612-.2119.4722-.4732.4722z"/><path id="_351380496" d="m25.7107 19.7936h.7773v-.7533c0-.2257.1601-.4199.3822-.4643.8571-.1676 1.6479-.625 2.2269-1.2865.1488-.1706.3971-.211.5927-.0986l.653.3775.3886-.6733-.6517-.3766c-.1958-.1124-.2843-.349-.2114-.563.2832-.8291.2832-1.7429 0-2.5721-.0729-.2139.0155-.4505.2112-.5629l.6519-.3766-.3886-.6734-.653.3776c-.1957.1124-.444.072-.5928-.0986-.5789-.6615-1.3698-1.1189-2.2268-1.2865-.222-.0434-.3822-.2386-.3822-.4643v-.7533h-.7773v.7532c0 .2258-.1602.421-.3823.4644-.8569.1675-1.6478.625-2.2268 1.2865-.1487.1706-.397.211-.5928.0986l-.6529-.3776-.3886.6734.6518.3766c.1957.1124.2841.349.2112.5629-.2831.8292-.2832 1.743 0 2.5732.073.2139-.0155.4495-.2113.5619l-.6517.3766.3886.6733.653-.3776c.1957-.1123.4439-.0709.5927.0987.5792.6614 1.3699 1.1189 2.2268 1.2865.2221.0434.3822.2386.3822.4644zm1.2505.9463h-1.7238c-.2613 0-.4732-.2119-.4732-.4731v-.8528c-.7878-.2228-1.5157-.6428-2.1049-1.2166l-.74.4269c-.2261.1312-.5157.0533-.6464-.1725l-.8618-1.4936c-.0629-.1085-.0799-.2376-.0474-.3589.0325-.1212.1118-.2247.2205-.2878l.7388-.426c-.2016-.7955-.2017-1.6365-.0001-2.4321l-.7388-.4269c-.2262-.1301-.3038-.4199-.1731-.6457l.862-1.4926c.1306-.2268.4199-.3046.6463-.1735l.74.4269c.5892-.5729 1.317-.9938 2.1049-1.2166v-.8528c0-.2613.2119-.4732.4732-.4732h1.7238c.2614 0 .4732.212.4732.4732l.0001.8528c.7879.2228 1.5157.6438 2.1049 1.2166l.74-.4269c.2263-.1311.5157-.0533.6463.1735l.862 1.4926c.1306.2258.0531.5156-.1733.6458l-.7387.4268c.2016.7956.2015 1.6366 0 2.4322l.7387.4258c.2264.1312.3039.421.1732.6468l-.8618 1.4936c-.0628.1084-.1661.1873-.2874.2198-.1212.0325-.2504.0158-.359-.0473l-.7399-.4269c-.5893.5738-1.3171.9938-2.1051 1.2166l.0001.8528c0 .2612-.2119.4732-.4733.4731z"/><path id="_351380088" d="m26.0993 12.7406c-1.0633 0-1.9284.8656-1.9284 1.9284 0 1.0637.8651 1.9294 1.9284 1.9294 1.0634-.0001 1.9284-.8656 1.9284-1.9294.0001-1.0628-.8651-1.9284-1.9284-1.9284zm0 4.8032c-1.5852 0-2.8748-1.2895-2.8748-2.8748 0-1.5843 1.2896-2.8748 2.8748-2.8748 1.5853 0 2.8749 1.2905 2.8749 2.8748 0 1.5852-1.2897 2.8748-2.8749 2.8748z"/><path id="_351380736" d="m14.8951 15.1412c-.7687 0-1.4871-.3549-1.8747-.9267-.1466-.2159-.0902-.5107.1261-.6575.2164-.146.5106-.0898.6573.1262.2139.3154.6321.5116 1.0913.5116.676 0 1.2258-.418 1.2258-.9326 0-.422-.4601-.9051-1.0758-.9218-1.1811-.0306-2.1062-.8548-2.1062-1.8771 0-1.0362.9744-1.8791 2.1723-1.8791.7688 0 1.4871.3549 1.8746.9267.1467.2159.0903.5107-.126.6576-.2162.1459-.5106.0897-.6573-.1262-.2138-.3155-.632-.5116-1.0913-.5116-.6759-.0001-1.2259.418-1.2259.9326.0001.4959.5313.9139 1.1844.9316 1.0828.0276 1.9977.8834 1.9977 1.8673 0 1.0361-.9745 1.879-2.1723 1.879z"/><path id="_351380544" d="m15.0032 16.065c-.2613 0-.4732-.212-.4732-.4732v-7.4571c0-.2623.2119-.4733.4732-.4733s.4731.211.4731.4733l.0001 7.4571c0 .2612-.2119.4732-.4732.4732z"/><path id="_351380592" d="m17.2951 18.6765h-5.324c-.2613 0-.4733-.2119-.4733-.4731 0-.2613.2119-.4733.4733-.4733h5.324c.2613 0 .4731.212.4731.4733 0 .2612-.2118.4732-.4731.4731z"/><path id="_351380640" d="m19.2916 21.1905h-7.3205c-.2613 0-.4733-.2109-.4733-.4732 0-.2613.2119-.4732.4733-.4732h7.3205c.2612 0 .4731.212.4731.4732 0 .2622-.2119.4732-.4731.4732z"/></g></g></svg>