<svg id="Layer_1" enable-background="new 0 0 512 512" height="512" viewBox="0 0 512 512" width="512" xmlns="http://www.w3.org/2000/svg"><g fill="rgb(0,0,0)"><path d="m391.191 393.713c-25.728 0-46.658-20.928-46.658-46.65s20.931-46.65 46.658-46.65c25.723 0 46.65 20.928 46.65 46.65s-20.927 46.65-46.65 46.65zm0-85.301c-21.316 0-38.658 17.339-38.658 38.65s17.342 38.65 38.658 38.65c21.312 0 38.65-17.339 38.65-38.65s-17.338-38.65-38.65-38.65z"/><path d="m391.191 451.506c-4.214 0-8.498-.261-12.737-.775-1.414-.172-2.631-1.083-3.193-2.393l-7.748-18.045c-6.398-1.815-12.579-4.379-18.423-7.639l-18.248 7.279c-1.325.528-2.825.312-3.945-.563-6.709-5.243-12.771-11.303-18.02-18.011-.877-1.122-1.094-2.625-.564-3.948l7.285-18.251c-3.26-5.842-5.822-12.023-7.639-18.424l-18.045-7.741c-1.309-.562-2.221-1.776-2.395-3.19-.514-4.218-.775-8.505-.775-12.742s.262-8.525.775-12.744c.174-1.414 1.086-2.629 2.395-3.19l18.045-7.741c1.816-6.4 4.38-12.582 7.639-18.424l-7.285-18.251c-.529-1.324-.313-2.828.564-3.95 5.259-6.712 11.32-12.772 18.018-18.014 1.122-.877 2.626-1.093 3.949-.564l18.246 7.285c5.84-3.259 12.021-5.821 18.423-7.639l7.748-18.043c.562-1.308 1.774-2.218 3.187-2.392 8.371-1.029 17.088-1.031 25.486 0 1.412.173 2.627 1.084 3.188 2.392l7.747 18.043c6.396 1.816 12.577 4.38 18.422 7.639l18.244-7.285c1.324-.529 2.827-.313 3.95.565 6.714 5.256 12.774 11.316 18.015 18.016.877 1.121 1.09 2.624.563 3.947l-7.285 18.249c3.258 5.828 5.822 12.01 7.646 18.426l18.042 7.741c1.311.562 2.223 1.778 2.395 3.193.516 4.237.775 8.523.775 12.741 0 4.217-.26 8.503-.775 12.739-.172 1.415-1.084 2.632-2.395 3.193l-18.042 7.741c-1.822 6.415-4.388 12.597-7.646 18.426l7.285 18.249c.527 1.322.314 2.824-.563 3.946-5.23 6.694-11.291 12.754-18.018 18.013-1.121.876-2.624 1.09-3.945.563l-18.244-7.279c-5.85 3.261-12.031 5.823-18.424 7.639l-7.747 18.045c-.562 1.31-1.78 2.222-3.194 2.393-4.246.514-8.531.775-12.737.775zm-9.5-8.468c6.34.62 12.64.622 19 0l7.588-17.677c.489-1.137 1.477-1.984 2.674-2.294 6.987-1.81 13.717-4.6 20.001-8.292 1.065-.628 2.362-.727 3.509-.267l17.875 7.132c4.914-4.031 9.418-8.534 13.431-13.427l-7.138-17.882c-.459-1.15-.359-2.448.268-3.515 3.688-6.254 6.48-12.983 8.3-19.999.311-1.198 1.158-2.185 2.294-2.672l17.676-7.583c.31-3.171.467-6.357.467-9.501s-.157-6.331-.467-9.503l-17.676-7.583c-1.136-.487-1.983-1.474-2.294-2.671-1.821-7.018-4.612-13.746-8.3-20-.627-1.066-.727-2.364-.268-3.515l7.138-17.881c-4.019-4.896-8.524-9.401-13.433-13.432l-17.872 7.137c-1.147.457-2.444.36-3.511-.267-6.28-3.691-13.01-6.481-20-8.293-1.198-.311-2.185-1.157-2.674-2.294l-7.589-17.678c-6.292-.619-12.723-.618-18.997 0l-7.592 17.678c-.488 1.137-1.475 1.984-2.673 2.294-6.997 1.813-13.727 4.603-19.999 8.293-1.068.627-2.363.724-3.512.267l-17.875-7.138c-4.898 4.022-9.403 8.527-13.436 13.435l7.137 17.879c.459 1.149.36 2.445-.268 3.512-3.69 6.273-6.48 13.003-8.292 20.001-.31 1.198-1.157 2.186-2.295 2.673l-17.678 7.584c-.311 3.159-.468 6.346-.468 9.502s.157 6.342.467 9.5l17.679 7.584c1.138.487 1.985 1.475 2.295 2.674 1.812 6.996 4.602 13.726 8.292 20 .628 1.066.727 2.362.268 3.512l-7.138 17.88c4.026 4.902 8.53 9.406 13.435 13.429l17.878-7.132c1.146-.46 2.443-.361 3.51.267 6.277 3.691 13.005 6.481 20 8.292 1.198.31 2.185 1.157 2.673 2.294z"/><path d="m114.996 249.049c-54.385 0-98.631-44.246-98.631-98.631s44.246-98.631 98.631-98.631 98.631 44.246 98.631 98.631-44.246 98.631-98.631 98.631zm0-189.262c-49.974 0-90.631 40.657-90.631 90.631s40.657 90.631 90.631 90.631c49.973 0 90.631-40.657 90.631-90.631s-40.658-90.631-90.631-90.631z"/><path d="m114.996 220.185c-38.47 0-69.768-31.297-69.768-69.767 0-38.469 31.298-69.766 69.768-69.766 38.469 0 69.766 31.297 69.766 69.766 0 38.47-31.297 69.767-69.766 69.767zm0-131.533c-34.059 0-61.768 27.708-61.768 61.766 0 34.059 27.709 61.767 61.768 61.767 34.057 0 61.766-27.708 61.766-61.767 0-34.058-27.709-61.766-61.766-61.766z"/><path d="m114.994 154.418c-12.418 0-22.521-8.266-22.521-18.426 0-10.159 10.103-18.425 22.521-18.425 12.42 0 22.523 8.266 22.523 18.425 0 2.209-1.791 4-4 4s-4-1.791-4-4c0-5.65-6.651-10.425-14.523-10.425-7.871 0-14.521 4.774-14.521 10.425s6.649 10.426 14.521 10.426c2.209 0 4 1.791 4 4s-1.791 4-4 4z"/><path d="m114.994 183.271c-12.418 0-22.521-8.266-22.521-18.426 0-2.209 1.791-4 4-4 2.208 0 4 1.791 4 4 0 5.651 6.649 10.426 14.521 10.426s14.523-4.774 14.523-10.426-6.651-10.427-14.523-10.427c-2.209 0-4-1.791-4-4s1.791-4 4-4c12.42 0 22.523 8.267 22.523 18.427s-10.103 18.426-22.523 18.426z"/><path d="m114.994 125.567c-2.209 0-4-1.791-4-4v-12.313c0-2.209 1.791-4 4-4s4 1.791 4 4v12.313c0 2.209-1.791 4-4 4z"/><path d="m114.994 195.583c-2.209 0-4-1.791-4-4v-12.313c0-2.209 1.791-4 4-4s4 1.791 4 4v12.313c0 2.209-1.791 4-4 4z"/><path d="m355.781 512h-205.376c-21.73 0-39.409-17.68-39.409-39.41v-227.541c0-2.209 1.791-4 4-4s4 1.791 4 4v227.541c0 17.319 14.09 31.41 31.409 31.41h205.376c17.319 0 31.41-14.091 31.41-31.41v-25.084c0-2.209 1.791-4 4-4s4 1.791 4 4v25.084c0 21.73-17.679 39.41-39.41 39.41z"/><path d="m391.191 250.618c-2.209 0-4-1.791-4-4v-207.208c0-17.319-14.091-31.41-31.41-31.41h-205.376c-17.319 0-31.409 14.091-31.409 31.41v16.375c0 2.209-1.791 4-4 4s-4-1.791-4-4v-16.375c0-21.73 17.679-39.41 39.409-39.41h205.376c21.73 0 39.41 17.68 39.41 39.41v207.208c0 2.209-1.791 4-4 4z"/><path d="m391.191 451.506h-276.195c-2.209 0-4-1.791-4-4s1.791-4 4-4h276.195c2.209 0 4 1.791 4 4s-1.791 4-4 4z"/><path d="m391.191 59.787h-276.195c-2.209 0-4-1.791-4-4s1.791-4 4-4h276.195c2.209 0 4 1.791 4 4s-1.791 4-4 4z"/><path d="m295.364 33.229h-84.541c-2.209 0-4-1.791-4-4s1.791-4 4-4h84.541c2.209 0 4 1.791 4 4s-1.791 4-4 4z"/><path d="m270.799 492.228h-35.41c-8.063 0-14.623-6.56-14.623-14.623s6.56-14.623 14.623-14.623h35.41c8.063 0 14.621 6.56 14.621 14.623s-6.559 14.623-14.621 14.623zm-35.41-21.247c-3.652 0-6.623 2.971-6.623 6.623s2.971 6.623 6.623 6.623h35.41c3.65 0 6.621-2.971 6.621-6.623s-2.971-6.623-6.621-6.623z"/><path d="m352.24 250.617h-198.294c-2.21 0-4-1.791-4-4v-9.93c0-2.209 1.79-4 4-4 2.209 0 4 1.791 4 4v5.93h190.294v-137.832h-152.665c-2.209 0-4-1.791-4-4s1.791-4 4-4h156.665c2.209 0 4 1.791 4 4v145.832c0 2.209-1.791 4-4 4z"/><path d="m253.094 279.469h-99.147c-2.21 0-4-1.791-4-4s1.79-4 4-4h99.147c2.209 0 4 1.791 4 4s-1.791 4-4 4z"/><path d="m281.174 324.675h-.017c-16.272-.066-33.075-.283-49.942-.645-2.208-.047-3.961-1.876-3.914-4.085.049-2.208 1.9-3.985 4.086-3.913 16.82.36 33.576.577 49.804.643 2.208.009 3.991 1.807 3.983 4.017-.008 2.203-1.797 3.983-4 3.983z"/><path d="m206.274 324.031h-52.328c-2.21 0-4-1.791-4-4s1.79-4 4-4h52.328c2.208 0 4 1.791 4 4s-1.792 4-4 4z"/><path d="m290.827 355.017-20.014-.001-18.03.001c-2.209 0-4-1.791-4-4s1.791-4 4-4l20.23-.001 17.813.001c2.208 0 4 1.791 4 4s-1.791 4-3.999 4z"/><path d="m227.685 355.017h-73.738c-2.21 0-4-1.791-4-4s1.79-4 4-4h73.738c2.209 0 4 1.791 4 4s-1.791 4-4 4z"/><path d="m290.627 386.637c-2.203 0-3.992-1.781-4-3.986-.008-2.209 1.777-4.006 3.986-4.014 10.65-.037 11.626-.112 12.977-.217 1.433-.11 3.215-.248 13.076-.417.023-.001.047-.001.068-.001 2.178 0 3.961 1.746 3.999 3.932.038 2.209-1.722 4.03-3.931 4.067-9.621.166-11.342.299-12.597.396-1.634.126-2.62.202-13.565.24z"/><path d="m265.978 386.653h-.009c-22.469-.047-45.299-.266-67.85-.652-2.209-.037-3.969-1.858-3.931-4.067.037-2.186 1.82-3.932 3.997-3.932.024 0 .047 0 .07.001 22.513.385 45.3.604 67.729.65 2.21.005 3.997 1.799 3.992 4.008-.003 2.207-1.794 3.992-3.998 3.992z"/><path d="m173.318 386.002h-19.372c-2.21 0-4-1.791-4-4s1.79-4 4-4h19.372c2.209 0 4 1.791 4 4s-1.791 4-4 4z"/><path d="m315.412 416.987h-2.063c-30.856-.006-30.857-.006-61.025 0h-2.014c-2.209 0-4.001-1.79-4.001-3.999s1.79-4.001 3.999-4.001h2.015c30.17-.006 30.17-.006 61.029 0h2.06c2.21 0 4 1.792 4 4.001s-1.791 3.999-4 3.999z"/><path d="m225.293 416.987h-71.347c-2.21 0-4-1.791-4-4s1.79-4 4-4h71.347c2.209 0 4 1.791 4 4s-1.791 4-4 4z"/></g></svg>