<svg height="512" viewBox="0 0 60 60" width="512" xmlns="http://www.w3.org/2000/svg"><g id="001---Game-Development"><path id="Path" d="m51 40c.5522847 0 1-.4477153 1-1v-1c0-.5522847-.4477153-1-1-1s-1 .4477153-1 1v1c0 .5522847.4477153 1 1 1z"/><path id="Path" d="m49 40h-1c-.5522847 0-1 .4477153-1 1s.4477153 1 1 1h1c.5522847 0 1-.4477153 1-1s-.4477153-1-1-1z"/><path id="Path" d="m51 42c-.5522847 0-1 .4477153-1 1v1c0 .5522847.4477153 1 1 1s1-.4477153 1-1v-1c0-.5522847-.4477153-1-1-1z"/><path id="Path" d="m55 41c0-.5522847-.4477153-1-1-1h-1c-.5522847 0-1 .4477153-1 1s.4477153 1 1 1h1c.5522847 0 1-.4477153 1-1z"/><path id="Path" d="m34 40h-2v-2c0-.5522847-.4477153-1-1-1s-1 .4477153-1 1v2h-2c-.5522847 0-1 .4477153-1 1s.4477153 1 1 1h2v2c0 .5522847.4477153 1 1 1s1-.4477153 1-1v-2h2c.5522847 0 1-.4477153 1-1s-.4477153-1-1-1z"/><path id="Path" d="m39 44h-1c-.5522847 0-1 .4477153-1 1s.4477153 1 1 1h1c.5522847 0 1-.4477153 1-1s-.4477153-1-1-1z"/><path id="Path" d="m44 44h-1c-.5522847 0-1 .4477153-1 1s.4477153 1 1 1h1c.5522847 0 1-.4477153 1-1s-.4477153-1-1-1z"/><path id="Shape" d="m59.981 40.908c-.132045-4.5072275-3.5113379-8.2544699-7.981-8.85v-28.058c0-2.209139-1.790861-4-4-4h-44c-2.209139 0-4 1.790861-4 4v40c0 2.209139 1.790861 4 4 4h12v2.465l-5.555 3.7c-.2789559.1861134-.44605511.4996591-.445.835v3c0 1.1045695.8954305 2 2 2h28c1.1045695 0 2-.8954305 2-2v-3c.0001546-.348712-.1813545-.6723211-.479-.854l-5.723-3.5.074-.132c.1762612-.3169654.5103225-.5136522.873-.514h8.51c.3626775.0003478.6967388.1970346.873.514l3.74 6.715c1.2005815 2.1508008 3.7026834 3.2188288 6.0863527 2.5979738 2.3836692-.620855 4.0468364-2.773777 4.0456473-5.2369738v-13.3c0-.056-.007-.11-.008-.165s.008-.084.008-.125c-.0047911-.0309651-.0111324-.0616703-.019-.092zm-55.981-38.908h44c1.1045695 0 2 .8954305 2 2v28.056c-2.1997209.2392647-4.2316336 1.2887297-5.7 2.944h-6.59c-2.1034763-2.3706113-5.3062549-3.4480676-8.4148685-2.830871s-5.656844 2.8364813-6.6951315 5.830871h-20.6v-34c0-1.1045695.8954305-2 2-2zm18 52h-7.7l3-2h4.7zm-20-10v-4h20.1c-.041.3-.067.6-.079.907 0 .032-.019.06-.019.093s.008.081.008.123-.01.111-.01.167v4.71h-18c-1.1045695 0-2-.8954305-2-2zm20 4v2h-4v-2zm-10 8h10.208c.1972057.7327233.5491025 1.4146937 1.032 2h-11.24zm19.6 2c.2013454-.2418521.3816674-.5004585.539-.773l.678-1.227h7.183v2zm5.853-4h-3.522l.893-1.6zm20.547.59c-.0003592 1.5518403-1.0484695 2.9077296-2.5501668 3.2990269s-3.0782123-.2806935-3.8358332-1.6350269l-3.738-6.713c-.5293924-.9511357-1.5324617-1.5408839-2.621-1.541h-8.51c-1.0885383.0001161-2.0916076.5898643-2.621 1.541l-3.736 6.71c-.7553587 1.3577139-2.3331901 2.0329236-3.8368798 1.641936s-2.5527811-1.7492465-2.5511202-3.302936v-7.957c.6918625.870999 1.5395933 1.6058121 2.5 2.167.1516028.0888854.3242622.1355035.5.135.4525881-.0000199.8487411-.3040116.9658809-.7411777.1171399-.4371661-.0739396-.8985084-.4658809-1.1248223-2.1222391-1.2344972-3.4461411-3.4872538-3.492-5.942.0153287-3.8551583 3.0807148-7.0058659 6.934-7.127 2.1038704-.035445 4.1073701.8977272 5.434 2.531.6617289.7918279 1.1398474 1.7204024 1.4 2.719.1139767.4414298.5120932.7498879.968.75.0862932.0004.1722965-.0100144.256-.031.2571007-.0661312.4773552-.2317783.612224-.4604364.1348689-.228658.1732827-.5015597.106776-.7585636-.1614466-.6048976-.3853156-1.1913806-.668-1.75h3.9c-.2819968.5586987-.5051946 1.1451793-.666 1.75-.1387596.5340016.1811942 1.0794892.715 1.219.0820811.020575.1663794.0309863.251.031.4559068-.0001121.8540233-.3085702.968-.75.8121993-3.0826355 3.5931941-5.2357431 6.781-5.25h.058c3.8511964.1205348 6.915969 3.26796 6.934 7.121-.0445325 2.4553814-1.368742 4.7090403-3.492 5.943-.3209394.1727115-.5225002.5063525-.5260692.8707953-.003569.3644429.1914191.7019673.5089145.880931s.7072132.1710225 1.0171547-.0207263c.9599854-.5592746 1.8077043-1.2920427 2.5-2.161z"/><path id="Path" d="m18.293 27.707c.3923789.3789722 1.0160848.3735524 1.4018186-.0121814s.3911536-1.0094397.0121814-1.4018186l-7.293-7.293 7.293-7.293c.3789722-.3923789.3735524-1.0160848-.0121814-1.4018186-.3857338-.38573377-1.0094397-.39115361-1.4018186-.0121814l-8 8c-.39038194.3904999-.39038194 1.0235001 0 1.414z"/><path id="Path" d="m32.293 27.707c.3904999.3903819 1.0235001.3903819 1.414 0l8-8c.3903819-.3904999.3903819-1.0235001 0-1.414l-8-8c-.3923789-.37897221-1.0160848-.37355237-1.4018186.0121814-.3857338.3857338-.3911536 1.0094397-.0121814 1.4018186l7.293 7.293-7.293 7.293c-.3903819.3904999-.3903819 1.0235001 0 1.414z"/><path id="Path" d="m22.649 27.937c.1124417.0412682.2312251.0625883.351.063.4171213.0002605.7905905-.2584177.937-.649l6-16c.125043-.3347579.0619962-.7107965-.1653911-.9864658s-.5845697-.40908858-.937-.35c-.3524303.0590885-.646566.3017079-.7716089.6364658l-6 16c-.1928807.5169238.0693475 1.0923938.586 1.286z"/></g></svg>