<svg id="Outline" height="512" viewBox="0 0 64 64" width="512" xmlns="http://www.w3.org/2000/svg"><g><circle cx="7" cy="7" r="1"/><circle cx="11" cy="7" r="1"/><path d="m6 16v18c0 .552.448 1 1 1s1-.448 1-1v-18c0-.552-.448-1-1-1s-1 .448-1 1z"/><path d="m61 26c.552 0 1-.448 1-1v-18c0-.552-.448-1-1-1h-48c-.552 0-1 .448-1 1v3h-8v-6h47c.552 0 1-.448 1-1s-.448-1-1-1h-48c-.552 0-1 .448-1 1v36c0 .552.448 1 1 1h9v3c0 .552.448 1 1 1h43v1c0 1.654-1.346 3-3 3h-42c-1.654 0-3-1.346-3-3v-2c0-.552-.448-1-1-1s-1 .448-1 1v2c0 2.757 2.243 5 5 5h10.934c-.307 2.35-1.679 4.481-3.736 5.715l-.475.285h-2.723c-2.757 0-5 2.243-5 5 0 .552.448 1 1 1h30c.552 0 1-.448 1-1s-.448-1-1-1h-28.829c.413-1.164 1.525-2 2.829-2h34c1.304 0 2.416.836 2.829 2h-6.829c-.552 0-1 .448-1 1s.448 1 1 1h8c.552 0 1-.448 1-1 0-2.757-2.243-5-5-5h-2.723l-.475-.285c-2.056-1.234-3.429-3.365-3.736-5.715h10.934c2.757 0 5-2.243 5-5v-1h3c.552 0 1-.448 1-1v-14c0-.552-.448-1-1-1s-1 .448-1 1v13h-46v-19c0-.552-.448-1-1-1s-1 .448-1 1v15h-8v-26h8v7c0 .552.448 1 1 1s1-.448 1-1v-3h43c.552 0 1-.448 1-1s-.448-1-1-1h-43v-6h46v17c0 .552.448 1 1 1zm-18.067 30h-21.866c1.612-1.596 2.645-3.724 2.881-6h16.104c.236 2.276 1.269 4.404 2.881 6z"/><circle cx="17" cy="11" r="1"/><circle cx="21" cy="11" r="1"/><circle cx="25" cy="11" r="1"/><path d="m30 10c-.552 0-1 .448-1 1s.448 1 1 1h27c.552 0 1-.448 1-1s-.448-1-1-1z"/><path d="m23 39h6c.552 0 1-.448 1-1v-5h5c.552 0 1-.448 1-1v-6c0-.552-.448-1-1-1h-5v-5c0-.552-.448-1-1-1h-6c-.552 0-1 .448-1 1v5h-5c-.552 0-1 .448-1 1v6c0 .552.448 1 1 1h5v5c0 .552.448 1 1 1zm-5-8v-4h5c.552 0 1-.448 1-1v-5h4v5c0 .552.448 1 1 1h5v4h-5c-.552 0-1 .448-1 1v5h-4v-5c0-.552-.448-1-1-1z"/><path d="m56 20h-13c-.552 0-1 .448-1 1s.448 1 1 1h13c.552 0 1-.448 1-1s-.448-1-1-1z"/><path d="m56 24h-16c-.552 0-1 .448-1 1s.448 1 1 1h16c.552 0 1-.448 1-1s-.448-1-1-1z"/><path d="m56 28h-16c-.552 0-1 .448-1 1s.448 1 1 1h16c.552 0 1-.448 1-1s-.448-1-1-1z"/><path d="m56 32h-16c-.552 0-1 .448-1 1s.448 1 1 1h16c.552 0 1-.448 1-1s-.448-1-1-1z"/><path d="m56 36h-16c-.552 0-1 .448-1 1s.448 1 1 1h16c.552 0 1-.448 1-1s-.448-1-1-1z"/></g></svg>