<svg id="Layer_3" enable-background="new 0 0 100 100" viewBox="0 0 100 100" xmlns="http://www.w3.org/2000/svg"><path d="m55.042 68.486c-.928 0-1.681.752-1.681 1.681v3.361h-40.333v-53.778h42.014c.928 0 1.68-.752 1.68-1.68v-3.361c0-2.78-2.262-5.042-5.041-5.042h-36.973c-2.78 0-5.041 2.262-5.041 5.042v3.361 57.139 10.083c0 2.78 2.262 5.042 5.041 5.042h36.973c2.78 0 5.041-2.262 5.041-5.042v-10.084-5.042c0-.928-.752-1.68-1.68-1.68zm-1.681 16.806c0 .926-.754 1.681-1.68 1.681h-36.973c-.926 0-1.68-.755-1.68-1.681v-8.403h40.333zm-40.333-70.584c0-.927.754-1.681 1.68-1.681h36.973c.926 0 1.68.754 1.68 1.681v1.68h-40.333zm15.125 67.222c0-.928.752-1.681 1.68-1.681h6.723c.928 0 1.68.752 1.68 1.681 0 .928-.752 1.68-1.68 1.68h-6.723c-.928.001-1.68-.752-1.68-1.68zm11.764-33.611c0 .928-.752 1.68-1.681 1.68h-13.444c-.928 0-1.681-.752-1.681-1.68s.753-1.681 1.681-1.681h13.444c.928.001 1.681.753 1.681 1.681zm-15.125 5.042h15.125c.928 0 1.68.752 1.68 1.681 0 .928-.752 1.681-1.68 1.681h-15.125c-.928 0-1.681-.753-1.681-1.681 0-.929.753-1.681 1.681-1.681zm20.166 8.403c0 .928-.752 1.681-1.68 1.681h-18.486c-.928 0-1.681-.752-1.681-1.681 0-.928.753-1.68 1.681-1.68h18.486c.928-.001 1.68.752 1.68 1.68zm-20.166 5.041h23.527c.928 0 1.681.752 1.681 1.68s-.752 1.681-1.681 1.681h-23.527c-.928 0-1.681-.752-1.681-1.681 0-.927.753-1.68 1.681-1.68zm0-30.249h1.68 1.681c2.78 0 5.041 2.262 5.041 5.042 0 .928.753 1.68 1.681 1.68s1.681-.752 1.681-1.68c0-3.55-2.216-6.586-5.335-7.814.709-1.111 1.133-2.473 1.133-3.95 0-3.707-2.639-6.723-5.882-6.723s-5.882 3.016-5.882 6.723c0 1.476.424 2.839 1.133 3.95-3.118 1.229-5.334 4.265-5.334 7.814 0 .928.752 1.68 1.68 1.68s1.681-.752 1.681-1.68c0-2.781 2.262-5.042 5.042-5.042zm1.68-10.084c1.366 0 2.521 1.539 2.521 3.361s-1.155 3.361-2.521 3.361-2.521-1.539-2.521-3.361 1.155-3.361 2.521-3.361zm63.861 16.806c0 12.973-10.554 23.528-23.527 23.528-4.285 0-8.301-1.157-11.764-3.165-7.026-4.074-11.764-11.673-11.764-20.363 0-8.63 4.72-16.263 11.764-20.357 3.038-1.766 6.505-2.878 10.217-3.121.942-.067 1.731.656 1.781 1.563.002.025-.003.049-.002.073.026.893-.661 1.659-1.56 1.725-3.891.247-7.467 1.604-10.436 3.745-5.098 3.676-8.403 9.67-8.403 16.371.01 6.707 3.33 12.667 8.403 16.337 3.316 2.399 7.379 3.823 11.764 3.83 11.108-.018 20.149-9.076 20.166-20.167 0-7.075-3.596-13.495-9.646-17.209 0 0 0 0-.017 0-.37-.235-.622-.604-.739-1.042-.096-.413-.021-.839.186-1.197.012-.021.019-.043.032-.064.47-.773 1.529-1.025 2.303-.554 7.041 4.303 11.242 11.815 11.242 20.067zm-19.941-21.549c.004-.021.004-.042.009-.063.219-.89 1.144-1.462 2.033-1.244.438.118.807.387 1.042.773.235.369.303.823.185 1.26-.006.025-.016.047-.024.071-.209.718-.858 1.223-1.606 1.223-.135 0-.269-.017-.404-.051-.868-.229-1.412-1.099-1.235-1.969zm-50.642 26.59c0 .924-.757 1.68-1.681 1.68-.925 0-1.68-.756-1.68-1.68 0-.925.756-1.681 1.68-1.681.924.001 1.681.756 1.681 1.681zm0 20.167c0 .924-.757 1.681-1.681 1.681-.925 0-1.68-.757-1.68-1.681 0-.925.756-1.68 1.68-1.68.924-.001 1.681.755 1.681 1.68zm0-13.444c0 .924-.757 1.681-1.681 1.681-.925 0-1.68-.757-1.68-1.681 0-.925.756-1.681 1.68-1.681s1.681.756 1.681 1.681zm0 6.722c0 .924-.757 1.681-1.681 1.681-.925 0-1.68-.757-1.68-1.681 0-.925.756-1.68 1.68-1.68.924-.001 1.681.755 1.681 1.68zm46.728-27.171c-1.736-1.746-4.045-2.709-6.503-2.709h-.002c-1.775 0-3.47.508-4.931 1.445-.563.36-1.093.778-1.576 1.264-2.501 2.515-3.249 6.129-2.256 9.307-.698.204-1.21.841-1.21 1.605 0 .928.752 1.681 1.681 1.681h1.368c.136.156.269.315.417.464l1.576 1.584 10.572 10.629c.315.317.744.495 1.192.495.447 0 .876-.178 1.191-.495l12.148-12.213c.149-.149.282-.308.418-.464h1.368c.928 0 1.68-.752 1.68-1.681 0-.763-.512-1.4-1.209-1.605.993-3.179.245-6.792-2.256-9.307-1.738-1.746-4.048-2.708-6.507-2.708s-4.769.962-6.506 2.707l-.328.331zm11.285 2.37c1.844 1.855 2.195 4.648 1.057 6.862h-5.783l-1.905-1.764c-.328-.304-.773-.473-1.209-.445-.447.018-.867.213-1.169.541l-2.927 3.182-1.151-1.066c-.311-.287-.719-.447-1.142-.447h-8.491-.25c-.945-1.837-.86-4.072.25-5.84.227-.362.493-.706.806-1.021 1.102-1.108 2.567-1.718 4.125-1.718h.002c1.556 0 3.019.61 4.12 1.718l1.52 1.527c.632.634 1.751.634 2.383 0l1.52-1.528c2.2-2.216 6.042-2.215 8.244-.001zm-10.957 19.331-9.06-9.109h5.128l1.904 1.764c.312.288.72.448 1.142.448.022 0 .045-.001.068-.002.446-.018.867-.213 1.169-.541l2.927-3.182 1.152 1.066c.31.287.718.447 1.142.447h3.488z"/></svg>