<?xml version="1.0"?>
<svg xmlns="http://www.w3.org/2000/svg" id="icons" viewBox="0 0 60 60"><path d="M30,8A22,22,0,1,0,52,30,22.025,22.025,0,0,0,30,8Zm0,42A20,20,0,1,1,50,30,20.023,20.023,0,0,1,30,50Z"/><path d="M58.2,25.19l-2.888-1.153a25.729,25.729,0,0,0-3.2-7.711l1.224-2.863a2.64,2.64,0,0,0-.385-2.771c-.476-.577-1.025-1.18-1.742-1.914-.718-.7-1.321-1.25-1.884-1.715a2.653,2.653,0,0,0-2.784-.4L43.674,7.891a25.718,25.718,0,0,0-7.711-3.2L34.808,1.8A2.706,2.706,0,0,0,32.585.115C31.811.038,30.965,0,30,0s-1.811.038-2.574.114A2.712,2.712,0,0,0,25.19,1.8L24.037,4.691a25.718,25.718,0,0,0-7.711,3.2L13.463,6.667a2.641,2.641,0,0,0-2.771.385c-.577.476-1.18,1.025-1.914,1.742-.7.718-1.25,1.321-1.715,1.884a2.647,2.647,0,0,0-.4,2.784l1.224,2.864a25.729,25.729,0,0,0-3.2,7.711L1.8,25.192A2.706,2.706,0,0,0,.115,27.415C.038,28.189,0,29.035,0,30s.038,1.811.114,2.574A2.712,2.712,0,0,0,1.8,34.81l2.888,1.153a25.729,25.729,0,0,0,3.2,7.711L6.667,46.537a2.64,2.64,0,0,0,.385,2.771c.476.577,1.025,1.18,1.742,1.914.718.7,1.321,1.25,1.884,1.715a2.647,2.647,0,0,0,2.784.4l2.864-1.224a25.738,25.738,0,0,0,7.711,3.2L25.192,58.2a2.706,2.706,0,0,0,2.223,1.683c.774.077,1.62.115,2.585.115s1.811-.038,2.574-.114A2.712,2.712,0,0,0,34.81,58.2l1.153-2.888a25.738,25.738,0,0,0,7.711-3.2l2.863,1.224a2.641,2.641,0,0,0,2.771-.385c.577-.476,1.18-1.025,1.914-1.742.7-.718,1.25-1.321,1.715-1.884a2.647,2.647,0,0,0,.4-2.784l-1.224-2.864a25.729,25.729,0,0,0,3.2-7.711L58.2,34.808a2.706,2.706,0,0,0,1.683-2.223c.077-.774.115-1.62.115-2.585a25.678,25.678,0,0,0-.115-2.58A2.71,2.71,0,0,0,58.2,25.19Zm-.3,7.206a.7.7,0,0,1-.439.556L54.077,34.3a1,1,0,0,0-.607.72,23.8,23.8,0,0,1-3.325,8.018,1,1,0,0,0-.082.937l1.43,3.348a.665.665,0,0,1-.086.71c-.441.533-.954,1.1-1.6,1.758-.677.661-1.241,1.174-1.788,1.627a.664.664,0,0,1-.7.074l-3.347-1.43a1.006,1.006,0,0,0-.937.082,23.827,23.827,0,0,1-8.018,3.326,1,1,0,0,0-.72.606L32.954,57.45a.7.7,0,0,1-.568.445c-.707.071-1.489.1-2.386.1a23.943,23.943,0,0,1-2.4-.106.7.7,0,0,1-.556-.439L25.7,54.077a1,1,0,0,0-.72-.606,23.827,23.827,0,0,1-8.018-3.326,1,1,0,0,0-.544-.162,1.015,1.015,0,0,0-.393.08l-3.348,1.43a.666.666,0,0,1-.71-.086c-.533-.441-1.1-.954-1.758-1.6-.661-.677-1.174-1.241-1.627-1.788a.662.662,0,0,1-.074-.7l1.43-3.347a1,1,0,0,0-.082-.937A23.8,23.8,0,0,1,6.53,35.021a1,1,0,0,0-.607-.72L2.55,32.954a.7.7,0,0,1-.445-.568C2.034,31.679,2,30.9,2,30a23.607,23.607,0,0,1,.106-2.4.7.7,0,0,1,.439-.556L5.923,25.7a1,1,0,0,0,.607-.72,23.8,23.8,0,0,1,3.325-8.018,1,1,0,0,0,.082-.937l-1.43-3.348a.665.665,0,0,1,.086-.71c.441-.533.954-1.1,1.6-1.758.677-.661,1.241-1.174,1.788-1.627a.66.66,0,0,1,.7-.074l3.348,1.43a1,1,0,0,0,.937-.082A23.784,23.784,0,0,1,24.979,6.53a1,1,0,0,0,.72-.607L27.046,2.55a.7.7,0,0,1,.568-.445C28.321,2.034,29.1,2,30,2a23.943,23.943,0,0,1,2.4.106.7.7,0,0,1,.556.439L34.3,5.923a1,1,0,0,0,.72.607,23.784,23.784,0,0,1,8.017,3.325,1,1,0,0,0,.937.082l3.349-1.43a.666.666,0,0,1,.71.086c.533.441,1.1.954,1.758,1.6.661.677,1.174,1.241,1.627,1.788a.662.662,0,0,1,.074.7l-1.43,3.347a1,1,0,0,0,.082.937,23.8,23.8,0,0,1,3.325,8.018,1,1,0,0,0,.607.72l3.373,1.347a.7.7,0,0,1,.444.558v.01A23.575,23.575,0,0,1,58,30,23.943,23.943,0,0,1,57.894,32.4Z"/><path d="M31,27V37a3,3,0,0,0,6,0V34h4v3a3,3,0,0,0,6,0V27a8,8,0,0,0-16,0Zm14,0V37a1,1,0,0,1-2,0V33a1,1,0,0,0-1-1H36a1,1,0,0,0-1,1v4a1,1,0,0,1-2,0V27a6,6,0,0,1,12,0Z"/><path d="M35,27v2a1,1,0,0,0,1,1h6a1,1,0,0,0,1-1V27a4,4,0,0,0-8,0Zm6,0v1H37V27a2,2,0,0,1,4,0Z"/><path d="M20,23a4,4,0,0,0-4,4v5a4,4,0,0,0,4,4,3.909,3.909,0,0,0,1.324-.239,1.01,1.01,0,0,0,.373-1.65l-.4-.4A1,1,0,0,1,22.5,32.142a1.013,1.013,0,0,0,1.5-.866V27A4,4,0,0,0,20,23Zm2,7.006h-.006a2.992,2.992,0,0,0-2.888,3.783A2,2,0,0,1,18,32V27a2,2,0,0,1,4,0Z"/><path d="M27.633,34.39A7.934,7.934,0,0,0,28,32V27a8,8,0,0,0-16,0v5a8,8,0,0,0,11.8,7.039l.067.066a3.072,3.072,0,0,0,4.242,0,3,3,0,0,0,0-4.242Zm-.942,3.3a1.025,1.025,0,0,1-1.414,0l-.623-.623a1,1,0,0,0-1.272-.118A5.993,5.993,0,0,1,14,32V27a6,6,0,0,1,12,0v5a5.966,5.966,0,0,1-.449,2.27,1,1,0,0,0,.219,1.085l.921.922A1,1,0,0,1,26.691,37.691Z"/></svg>
