<svg id="icons" enable-background="new 0 0 64 64" height="512" viewBox="0 0 64 64" width="512" xmlns="http://www.w3.org/2000/svg"><path d="m29.03 5c.552 0 1-.447 1-1s-.448-1-1-1h-.01c-.552 0-.994.447-.994 1s.452 1 1.004 1z"/><path d="m32 5h3c.553 0 1-.447 1-1s-.447-1-1-1h-3c-.553 0-1 .447-1 1s.447 1 1 1z"/><path d="m50 57v-50.998c0-3.305-2.685-5.992-5.987-5.999-.004 0-.008-.003-.013-.003h-24c-3.309 0-6 2.691-6 6v51c0 3.859 3.141 7 7 7h22c3.859 0 7-3.141 7-7zm-2-7h-32v-41.998h32zm-32 2h16 16v1c0 2.757-2.243 5-5 5h-11-11c-2.757 0-5-2.243-5-5zm4-50h23.99c.004 0 .006.002.01.002 2.206 0 4 1.794 4 4h-32v-.002c0-2.206 1.794-4 4-4zm23 60h-22c-2.418 0-4.438-1.726-4.9-4.01 1.264 1.241 2.994 2.01 4.9 2.01h22c1.906 0 3.636-.769 4.9-2.01-.462 2.284-2.482 4.01-4.9 4.01z"/><path d="m29 55c0 1.654 1.346 3 3 3s3-1.346 3-3-1.346-3-3-3-3 1.346-3 3zm3-1c.552 0 1 .448 1 1s-.448 1-1 1-1-.448-1-1 .448-1 1-1z"/><path d="m19.053 22.259c.019.067.035.132.066.192.01.019.009.039.02.058.039.067.089.126.141.181.008.008.013.019.021.026.081.08.177.14.278.188.026.013.053.022.08.032.11.041.225.068.342.069h.002.001c.114 0 .229-.027.341-.069.03-.011.059-.022.088-.036.024-.012.051-.018.074-.031l.496-.29v10.431c-.553.001-.999.447-.999 1s.447 1 1 1h8.998 3.998 8.998c.553 0 1-.447 1-1s-.446-.999-.999-1v-10.432l.496.29c.023.014.05.02.074.031.029.014.058.025.088.036.111.041.227.069.341.069h.001.002c.117-.001.231-.028.342-.069.027-.01.054-.02.08-.032.102-.048.197-.107.278-.188.008-.008.013-.019.021-.026.052-.055.102-.113.141-.181.011-.019.01-.038.02-.057.031-.062.048-.126.066-.193.017-.064.034-.126.038-.191.002-.021.013-.04.013-.063v-4.002c0-.043-.02-.079-.024-.121-.009-.068-.018-.133-.04-.198-.021-.063-.051-.117-.083-.173-.031-.054-.063-.104-.104-.152-.047-.055-.101-.098-.157-.141-.032-.024-.053-.058-.088-.078l-11.998-7.003c-.038-.022-.08-.024-.119-.041-.065-.027-.127-.054-.195-.066-.064-.013-.125-.013-.189-.013-.063 0-.125 0-.188.013-.068.013-.129.039-.193.065-.04.018-.083.02-.122.042l-12.002 7.004c-.035.021-.056.054-.088.078-.057.043-.11.086-.157.141-.042.048-.072.099-.104.152-.032.057-.062.11-.083.173-.022.065-.031.13-.04.198-.005.042-.024.078-.024.121v4.002c0 .022.011.04.013.063.004.065.021.126.038.191zm12.947-10.102 10.998 6.419v1.688l-10.494-6.125c-.039-.022-.082-.024-.122-.042-.063-.026-.124-.052-.192-.065-.063-.013-.125-.013-.189-.013-.063 0-.125 0-.189.013-.066.014-.127.039-.19.065-.041.017-.085.019-.124.042l-10.494 6.125v-1.688zm-.999 20.853v-8.006h1.998v8.006zm9.997 0h-5.999v-9.006c0-.553-.447-1-1-1h-3.998c-.553 0-1 .447-1 1v9.006h-5.999v-11.599l8.998-5.252 8.998 5.252z"/><path d="m18.998 42.001h26.004c.553 0 1-.447 1-1v-3c0-.553-.447-1-1-1h-26.004c-.553 0-1 .447-1 1v3c0 .553.447 1 1 1zm25.004-2h-13.588l-1-1h14.588zm-24.004-1h6.588l1 1h-7.588z"/><path d="m18.998 48h26.004c.553 0 1-.447 1-1v-3c0-.553-.447-1-1-1h-26.004c-.553 0-1 .447-1 1v3c0 .553.447 1 1 1zm25.004-2h-4.579l-1-1h5.579zm-24.004-1h15.597l1 1h-16.597z"/></svg>