<svg id="Layer_1" enable-background="new 0 0 64 64" viewBox="0 0 64 64" xmlns="http://www.w3.org/2000/svg"><path d="m3 62h58c.5527344 0 1-.4477539 1-1v-47.0063477-10.9936523c0-.5522461-.4472656-1-1-1h-58c-.5527344 0-1 .4477539-1 1v10.9936523 47.0063477c0 .5522461.4472656 1 1 1zm57-2h-56v-45.0063477h56zm-56-56h56v8.9936523h-56z"/><path d="m9.8066406 7.496582h-1.2470703c-.5527344 0-1 .4477539-1 1s.4472656 1 1 1h1.2470703c.5527344 0 1-.4477539 1-1s-.4472656-1-1-1z"/><path d="m14.4511719 7.496582h-1.2460938c-.5527344 0-1 .4477539-1 1s.4472656 1 1 1h1.2460938c.5527344 0 1-.4477539 1-1s-.4472657-1-1-1z"/><path d="m19.0966797 7.496582h-1.2460938c-.5527344 0-1 .4477539-1 1s.4472656 1 1 1h1.2460938c.5527344 0 1-.4477539 1-1s-.4472656-1-1-1z"/><path d="m55.0966797 7.496582h-32.3222656c-.5527344 0-1 .4477539-1 1s.4472656 1 1 1h32.3222656c.5527344 0 1-.4477539 1-1s-.4472656-1-1-1z"/><path d="m19.34375 30.9282227h2.8046875v13.3300781c0 .5522461.4472656 1 1 1h5.8085938 6.1337891 5.7568359c.5527344 0 1-.4477539 1-1v-13.3300781h2.8085937c.4257812 0 .8056641-.2700195.9453125-.6728516.1386719-.402832.0078125-.8496094-.3271484-1.112793l-12.65625-9.9604492c-.3613281-.2861328-.875-.2861328-1.2363281 0l-12.65625 9.9604492c-.3349609.2631836-.4658203.7099609-.3271484 1.112793.1396483.402832.5195312.6728516.9453124.6728516zm10.6132812 12.3300781v-7.203125h4.1337891v7.203125zm2.0429688-22.0180664 9.7685547 7.6879883h-.9208984c-.0025635 0-.0046387.0014648-.0073242.0014648h-10.3969727c-.5527344 0-1 .4477539-1 1s.4472656 1 1 1h9.4042969v12.3286133h-3.7568359v-8.203125c0-.5522461-.4472656-1-1-1h-6.1337891c-.5527344 0-1 .4477539-1 1v8.203125h-3.8085938v-12.3286133h2.5078125c.5527344 0 1-.4477539 1-1s-.4472656-1-1-1h-3.5004883c-.0026855 0-.0047607-.0014648-.0073242-.0014648h-.9169922z"/><path d="m11.9228516 50.387207h1.2822266c.5527344 0 1-.4477539 1-1s-.4472656-1-1-1h-1.2822266c-.5527344 0-1 .4477539-1 1s.4472656 1 1 1z"/><path d="m17.8505859 50.387207h34.2265625c.5527344 0 1-.4477539 1-1s-.4472656-1-1-1h-34.2265625c-.5527344 0-1 .4477539-1 1s.4472657 1 1 1z"/><path d="m11.9228516 54.6088867h40.1542969c.5527344 0 1-.4477539 1-1s-.4472656-1-1-1h-40.1542969c-.5527344 0-1 .4477539-1 1s.4472656 1 1 1z"/></svg>