<svg id="Head_gear" height="512" viewBox="0 0 512 512" width="512" xmlns="http://www.w3.org/2000/svg"><path d="m97.464 234.536c-1.953-1.953-1.953-5.119 0-7.071l25-25c1.953-1.952 5.118-1.952 7.071 0 1.953 1.953 1.953 5.119 0 7.071l-25 25c-.976.976-2.255 1.464-3.535 1.464s-2.559-.488-3.536-1.464zm388.536-23.536v90c0 11.028-8.972 20-20 20h-25v15c0 24.813-20.187 45-45 45h-32.284c-29.916 25.799-68.14 40-107.716 40-39.568 0-77.786-14.198-107.712-40h-32.288c-24.813 0-45-20.187-45-45v-15h-25c-11.028 0-20-8.972-20-20v-90c0-11.028 8.972-20 20-20h25v-15c0-24.813 20.187-45 45-45h32.292c29.91-25.799 68.13-40 107.708-40 39.574 0 77.793 14.2 107.706 40h32.294c24.813 0 45 20.187 45 45v15h25c11.028 0 20 8.972 20 20zm-415-10h-25c-5.514 0-10 4.486-10 10v90c0 5.514 4.486 10 10 10h25zm93.333-70h183.33c-26.471-19.424-58.563-30-91.663-30-33.105 0-65.197 10.575-91.667 30zm183.34 250s-26.813-2.564-44.679-16.004c-18.447-13.836-46.711-13.996-46.994-13.996-.28 0-28.613.21-47 14-17.86 13.436-44.666 16-44.666 16 26.48 19.427 58.57 30 91.666 30 33.104 0 65.198-10.574 91.673-30zm83.327-50h-350v5c0 19.299 15.701 35 35 35h49.727c2.292-.267 22.52-2.901 37.268-13.996 21.096-15.822 51.712-16.004 53.005-16.004s31.909.182 53 16c14.811 11.142 34.964 13.735 37.27 14h49.73c19.299 0 35-15.701 35-35zm0-140h-350v130h350zm0-15c0-19.299-15.701-35-35-35h-280c-19.299 0-35 15.701-35 35v5h350zm45 35c0-5.514-4.486-10-10-10h-25v110h25c5.514 0 10-4.486 10-10zm-244.472 72.237c.847 1.693 2.578 2.763 4.472 2.763s3.625-1.07 4.472-2.764l23.618-47.236h27.567l-14.817 22.227c-1.176 1.764-1.111 4.077.16 5.773l15 20c.982 1.31 2.483 2 4.004 2 1.044 0 2.097-.325 2.996-1 2.209-1.657 2.657-4.791 1-7l-12.877-17.17 18.037-27.057c1.023-1.534 1.118-3.507.248-5.133-.87-1.625-2.564-2.641-4.408-2.641h-40c-1.894 0-3.625 1.07-4.472 2.764l-20.528 41.057-20.528-41.055c-1.235-2.47-4.24-3.471-6.708-2.236-2.47 1.235-3.471 4.238-2.236 6.708zm-129.064-18.702c.977.977 2.256 1.465 3.536 1.465s2.559-.488 3.536-1.465l55-55c1.953-1.953 1.953-5.119 0-7.071s-5.118-1.952-7.071 0l-55 55c-1.953 1.953-1.953 5.119-.001 7.071z" fill="rgb(0,0,0)"/></svg>